<svg xmlns="http://www.w3.org/2000/svg" viewBox="0 0 119.17 183.15" width="125px">
    <defs>
        <style>.cls-1{isolation:isolate;}.cls-2{fill:#261d22;}.cls-3{fill:#663314;}.cls-4{fill:#4b220f;}.cls-5{fill:#f3d9bf;}.cls-6{fill:#e1ba93;}.cls-7{fill:#864b24;}.cls-8{fill:#c29369;}.cls-9{fill:#874b20;}.cls-10,.cls-11{fill:#c37436;}.cls-11,.cls-24{opacity:0.5;}.cls-11,.cls-18,.cls-24{mix-blend-mode:multiply;}.cls-12{fill:#d9a783;}.cls-13{fill:#efc9a6;}.cls-14{fill:#431f0e;}.cls-15{fill:#fff;}.cls-16{fill:#f1daca;}.cls-17{fill:#c07134;}.cls-18{fill:#d6b398;}.cls-19{fill:#40343c;}.cls-20{fill:#e44649;}.cls-21{fill:#951a2e;}.cls-22{fill:#f7fbff;}.cls-23{fill:#ae6229;}</style>
    </defs>
    <g class="cls-1">
        <g id="Layer_1" data-name="Layer 1">
            <path class="cls-2" d="M29.91,41.39s4.42-15.11,27.8-13.69c19.24.57,24.66,3.14,27.5,11C76,39.82,29.91,41.39,29.91,41.39Z"/>
            <path class="cls-2" d="M85.09,44a107.92,107.92,0,0,1,6.7,19.75c2.1,8.76,6.12,20,6.12,20l-4.39,2.43-2.66-6,1.5,6.93L81.62,89.38,40.15,87l-8.66-5.43s-2.08-23,3.7-36.62C47.32,43.87,85.09,44,85.09,44Z"/>
            <path class="cls-3" d="M55.57,174.68c-.06-.36-.18-.78-.29-1.31-.35-1.7-2.56-10.33-2.56-10.33s-1.07-3-3.85-2.35A10.17,10.17,0,0,0,44,163.9s.93,3.42,1.43,5.84-4.21,5-6.92,7.27a3.78,3.78,0,0,0-.87,1.1C40,178.63,46,179.24,55.57,174.68Z"/>
            <path class="cls-4" d="M37.66,178.11c-.47,1,.37,1.7,2.94,1.54,3.42-.21,10.41-1.14,14-3,1-.65,1.15-1.16,1-2C46,179.24,40,178.63,37.66,178.11Z"/>
            <path class="cls-5" d="M41.57,140s1,11.43,3.39,18.14l6.51-.42-2.7-18.06Z"/>
            <path class="cls-6" d="M49.69,145.81l-.92-6.15-7.2.34s.22,2.59.7,6A37.59,37.59,0,0,0,49.69,145.81Z"/>
            <path class="cls-7" d="M41.57,157.79,52.92,157l1.8,6-3.19,1-1.1-2.35-.21,2.49s-1.11-2.63-1.11-2.42.35,2.77.35,2.77l-6.72.48Z"/>
            <path class="cls-5" d="M20.94,90.18l-8,1.29a3.43,3.43,0,0,0-2.34-3c-1.92-2.11-6.9-2.11-8-.24-.24.72,2.83-.05,4.45.67-3.44,1-5,2.73-4.79,4.17.1.58,2.78-2.2,4.84-2.06-2.49,1.39-3.83,3.79-3,4.65C4.6,96,6.61,92.77,7.67,93c-1.73,2-2.4,4.32-1.58,4.7s1.43-3.55,2.2-3.59c.91,1.67,3.11,2.49,4.17.67,3.49.09,10.59-.39,10.59-.39Z"/>
            <path class="cls-6" d="M21,94.52l2.06-.13-2.11-4.21-1.76.29C19.8,91.81,20.36,93.18,21,94.52Z"/>
            <path class="cls-8" d="M10.68,93.59a2.91,2.91,0,0,1-.92-.53,2.4,2.4,0,0,1-.38-.4,1.14,1.14,0,0,1-.15-.23.85.85,0,0,1-.11-.26A1,1,0,0,1,9,91.89a1.5,1.5,0,0,1,0-.29v-.29A2.29,2.29,0,0,1,9.09,91a2.24,2.24,0,0,1,.2-.53c.09-.17.2-.32.3-.48l.12.41a9.19,9.19,0,0,0-1.88-.36c-.32,0-.63,0-1-.12a.66.66,0,0,1-.34-.18.46.46,0,0,1-.14-.22s0-.07,0-.11v-.06h0V89.3h0v0a.31.31,0,0,1,0-.13A.91.91,0,0,1,6.51,89a1.71,1.71,0,0,1,.25-.18,3.06,3.06,0,0,1,.49-.23c.17-.06.34-.1.5-.14a5.84,5.84,0,0,1,1-.14,4.86,4.86,0,0,1,1,0,3.61,3.61,0,0,1,1,.24,5.79,5.79,0,0,0-1.95.07,9,9,0,0,0-.93.22L7.43,89a2.52,2.52,0,0,0-.4.21c-.06,0-.09.08-.15.12s0,0,0,0,0,.06,0,.09v0h0s0-.07,0-.07h0s0,0,0,0l.1,0a8.34,8.34,0,0,0,.94.09,8.41,8.41,0,0,1,2,.43l.33.12-.2.29-.28.39a4.14,4.14,0,0,0-.2.43,1.87,1.87,0,0,0-.07.22l0,.23a.89.89,0,0,0,0,.23.61.61,0,0,0,0,.23.63.63,0,0,0,.07.22.88.88,0,0,0,.1.22,2.13,2.13,0,0,0,.28.41A3.63,3.63,0,0,0,10.68,93.59Z"/>
            <path class="cls-5" d="M91,99.94l13.88,8.65a11.27,11.27,0,0,1,7.13-2.1c1.23,0,0,1.3-1.68,2,3.86-.87,6.7.29,6.91,1s-3.42.07-5.67.72c5,.51,6.11,2.26,5.89,2.91s-3.13-1.16-6-1c4.29,2.11,4.73,3.13,4.43,3.78s-3.34-1.81-5.6-2c2.33,2.11,2.77,4.36,2.33,4.8s-2.47-2.25-3.56-3.85c-.73,1.38-2.81,0-5.6-1.46-4.36-2.32-16.57-9.67-16.57-9.67S89.67,101.32,91,99.94Z"/>
            <path class="cls-6" d="M93,101.19l-2-1.25c-1.31,1.38-4.07,3.78-4.07,3.78l2.16,1.3A14.26,14.26,0,0,0,93,101.19Z"/>
            <path class="cls-8" d="M110.6,108.31a15.4,15.4,0,0,1-2.37,1.33l.07-.46a3.62,3.62,0,0,1,.38.41,2.05,2.05,0,0,1,.29.47,2.31,2.31,0,0,1,.19.52,2.7,2.7,0,0,1,0,.28,1.41,1.41,0,0,1,0,.29.8.8,0,0,1,0,.27.89.89,0,0,1-.07.28,2.6,2.6,0,0,1-.1.25l-.14.23a2.74,2.74,0,0,1-.34.41c-.13.12-.27.22-.4.32.08-.15.18-.29.26-.43s.15-.29.2-.44l.08-.23,0-.22a1.63,1.63,0,0,0,0-.44.83.83,0,0,0,0-.22.8.8,0,0,0,0-.21,1.62,1.62,0,0,0-.17-.41,4,4,0,0,0-.24-.38,3.25,3.25,0,0,0-.29-.33l-.32-.3.39-.16A15.33,15.33,0,0,1,110.6,108.31Z"/>
            <path class="cls-3" d="M103.6,137.55c-2.4.07-10.83,1.54-10.83,1.54a6.54,6.54,0,0,0,1,7.56s3.47-.43,4.49-.52,2.41,1.3,4.09,3.71,2.94,4.29,4.48,4h0a76.88,76.88,0,0,0-.66-9.32C105.67,140.69,104.49,138.62,103.6,137.55Z"/>
            <path class="cls-4" d="M107.37,146.27c-.72-4.58-1.44-8.72-3.61-8.72h-.16c.89,1.07,2.07,3.14,2.57,7a76.88,76.88,0,0,1,.66,9.32C108.33,153.5,108.09,150.81,107.37,146.27Z"/>
            <path class="cls-5" d="M81.44,142.17c-2.29.2-2.88-.52-4.51-5.36l-8.36,1.64s1.57,5.61,3.33,8.1,6.6,3.53,17.5-.66l-.71-5.22A62.78,62.78,0,0,1,81.44,142.17Z"/>
            <path class="cls-6" d="M79.45,142.33l.51-.25c-1.18-.36-1.82-1.68-3-5.27l-8.36,1.64a44.5,44.5,0,0,0,2.37,6.44A26,26,0,0,0,79.45,142.33Z"/>
            <polygon class="cls-7" points="93 143.02 94.63 142.17 92.67 141.58 94.37 140.93 94.11 138.19 88.49 138.78 88.69 140.67 89.4 145.89 89.73 148.25 94.57 147.66 94.24 143.41 93 143.02"/>
            <polygon class="cls-9" points="33.4 139.51 32.68 143.47 34.33 143.75 34.91 139.66 33.4 139.51"/>
            <polygon class="cls-9" points="36.35 139.8 35.91 143.83 37.64 143.97 37.93 139.94 36.35 139.8"/>
            <polygon class="cls-9" points="39.72 139.87 39.37 144.04 41.16 144.33 41.23 140.16 39.72 139.87"/>
            <polygon class="cls-9" points="43.53 140.38 43.39 144.25 44.9 144.33 44.9 140.3 43.53 140.38"/>
            <polygon class="cls-9" points="47.78 140.52 47.42 143.75 49.28 144.18 49.14 140.16 47.78 140.52"/>
            <path class="cls-9" d="M52.16,140.38c0,.21-.07,3.66-.07,3.66l1.58.07-.14-4Z"/>
            <polygon class="cls-9" points="55.4 140.23 55.54 144.19 56.98 144.04 56.62 140.02 55.4 140.23"/>
            <polygon class="cls-9" points="59.49 139.73 59.64 143.83 61.15 143.54 60.93 139.51 59.49 139.73"/>
            <polygon class="cls-9" points="63.3 139.44 63.59 143.54 64.81 143.46 64.53 139.22 63.3 139.44"/>
            <polygon class="cls-9" points="67.11 138.94 67.76 142.96 69.13 142.89 68.33 138.57 67.11 138.94"/>
            <polygon class="cls-9" points="70.85 137.93 71.5 141.88 73 141.74 71.93 137.57 70.85 137.93"/>
            <polygon class="cls-9" points="74.66 136.71 75.95 141.17 77.1 140.73 75.81 136.21 74.66 136.71"/>
            <polygon class="cls-9" points="77.75 135.56 78.9 140.09 80.27 139.58 78.68 135.27 77.75 135.56"/>
            <polygon class="cls-9" points="80.05 134.91 81.56 139.08 82.85 138.65 81.34 134.26 80.05 134.91"/>
            <polygon class="cls-9" points="82.58 133.5 84.42 137.76 83.39 138.13 81.69 133.94 82.58 133.5"/>
            <path class="cls-10" d="M39.74,108.24l-7.26,32.07s30.93,4.85,50.6-6l-6.42-25.8S56.56,117.5,39.74,108.24Z"/>
            <path class="cls-11" d="M76.66,108.52s-20.1,9-36.92-.28L38.66,113a15.71,15.71,0,0,0,6.46,2.31,62.25,62.25,0,0,0,9,.78,60.49,60.49,0,0,0,7.25-.22,37,37,0,0,0,5.55-1.08c1.3-.32,3-.78,4.28-.17a4,4,0,0,1,1.95,2.6,58.15,58.15,0,0,1,1.44,7.53c.5,2.73.86,6.09-1.27,8.28-1.92,2-4.69,2.64-7.31,3.1-3.53.6-7.08,1.24-10.65,1.63A52.47,52.47,0,0,1,43,138a45.83,45.83,0,0,1-9.5-2.35l-1.06,4.69s30.93,4.85,50.6-6Z"/>
            <path class="cls-12" d="M66.05,78.15a23.2,23.2,0,0,0-3-.42l-4.57,7.51-1.37-6.37a4.14,4.14,0,0,0-2.08.23l3.17,10.7Z"/>
            <polygon class="cls-13" points="63.08 77.73 62.69 75.45 57.07 76.16 57.14 78.87 58.51 85.24 63.08 77.73"/>
            <path class="cls-5" d="M32.29,61S32.1,72.32,50.91,76.5C61,77.73,73.15,75.74,76.38,63c1.9-8.45-2.66-19.38-2.66-19.38L34.76,46S31.81,54.36,32.29,61Z"/>
            <path class="cls-14" d="M42.82,59.94c.1,1.33-.29,2.44-.86,2.48s-1.14-1-1.25-2.31.29-2.44.87-2.48S42.71,58.62,42.82,59.94Z"/>
            <path class="cls-15" d="M41.53,59c0,.41-.14.73-.32.73s-.32-.33-.31-.73.14-.73.32-.73S41.53,58.63,41.53,59Z"/>
            <path class="cls-14" d="M61.62,57.67c.19,1.32-.13,2.45-.7,2.53s-1.2-.92-1.38-2.24.13-2.44.71-2.52S61.44,56.35,61.62,57.67Z"/>
            <path class="cls-15" d="M60.29,56.84c0,.4-.1.74-.27.75s-.34-.31-.37-.71.1-.74.28-.75S60.27,56.44,60.29,56.84Z"/>
            <path class="cls-16" d="M33.3,40.16S27.07,38.75,24.37,36a12.44,12.44,0,0,0,2.29.17,19.08,19.08,0,0,1-3.41-4.29l2.47.88S20.15,27,25.28,12.09c9,8.91,8.77,16,8.62,19.1l.86-2.06s.78,3.35.85,4.27l.5-1.92S38.76,40.36,33.3,40.16Z"/>
            <path class="cls-17" d="M27.19,26.11a18.32,18.32,0,0,1,3.51-7.33,35.66,35.66,0,0,0-5.42-6.69,39,39,0,0,0-2,8.89A51.44,51.44,0,0,0,27.19,26.11Z"/>
            <path class="cls-16" d="M48.58,38.68s-5.41-.79-7.27-3.64c2.64.43,3.07.57,3.07.57a6.47,6.47,0,0,1-3.49-4.13,19.68,19.68,0,0,1,2.42,1,6.49,6.49,0,0,1-1.85-2.57l1,.36s-4.37-8.6,1.62-22.67c9.31,7.13,9.6,19.29,8.74,23.76l.95-1.52S54.52,39.25,48.58,38.68Z"/>
            <path class="cls-17" d="M43.05,18.84a15.09,15.09,0,0,0,2.35,2.63c.92.79,1.68-.92,2.18-1.61,1-1.39,2-2.83,2.92-4.26a21.83,21.83,0,0,0-6.43-8,40.73,40.73,0,0,0-2.62,8.54A15.61,15.61,0,0,0,43.05,18.84Z"/>
            <path class="cls-16" d="M62.5,38.3a13.36,13.36,0,0,1-5.88-6.66l1.89,1.43a20.2,20.2,0,0,1-1-4.75c1.61,1.81,2.09,2,2.09,2S54.33,24.9,67.44,6.08C72.86,17.3,69,28.89,68,30.89l1.52-1.43v2.75l.95-.57S69.54,39.53,62.5,38.3Z"/>
            <path class="cls-17" d="M64.07,22.41a30.25,30.25,0,0,1,6.11-5.85A28.34,28.34,0,0,0,67.44,6.08a76.87,76.87,0,0,0-5.53,9.11C62.37,17.63,63.58,19.94,64.07,22.41Z"/>
            <path class="cls-16" d="M77.62,38.77s-3.62-2.85-4.09-7c.28-1.23,2.28,1.81,2.28,1.81s-.48-3.61,0-4.19S77,31.27,77,31.27,76.47,20.15,90.54,9.6c3.32,11.78.38,18.81-4.09,24.71a17.11,17.11,0,0,0,2.09-1.15S86,39.82,77.62,38.77Z"/>
            <path class="cls-17" d="M84.47,24.22c0,.49,1.56-.58,1.76-.69q.8-.44,1.59-.84c1.1-.56,2.21-1.06,3.34-1.54l.74-.31A32.7,32.7,0,0,0,90.54,9.6a41.91,41.91,0,0,0-7.15,6.71C83.67,19,84.56,21.54,84.47,24.22Z"/>
            <path class="cls-18" d="M33.81,40.2s-.26-.27-.68-.78-1-1.26-1.57-2.21c-.3-.47-.61-1-.94-1.55s-.65-1.16-.94-1.8-.62-1.29-.9-2S28.25,30.5,28,29.8s-.45-1.43-.68-2.14-.36-1.42-.53-2.09-.27-1.36-.39-2-.18-1.24-.27-1.8-.14-1.06-.16-1.52-.05-.85-.07-1.18c0-.65,0-1,0-1s.05.37.15,1c.05.32.11.72.17,1.16s.19.95.27,1.5.19,1.15.36,1.77.3,1.27.46,1.95.38,1.36.58,2.06.44,1.4.69,2.1.49,1.4.78,2.07.54,1.34.84,2c.57,1.27,1.16,2.43,1.7,3.4.28.48.53.92.77,1.31s.45.72.62,1C33.59,39.9,33.81,40.2,33.81,40.2Z"/>
            <path class="cls-18" d="M45.21,15.59s0,.36.08,1,.15,1.55.24,2.64.24,2.36.4,3.71.35,2.8.6,4.23c.1.72.23,1.44.37,2.14s.28,1.39.42,2.05.32,1.3.46,1.91.35,1.16.5,1.68c.08.26.17.51.26.74l.25.66c.08.2.15.4.22.58s.16.33.23.47l.44.91s-.19-.32-.53-.86L48.87,37c-.09-.17-.17-.36-.27-.57A12.84,12.84,0,0,1,48,35.05c-.18-.52-.42-1.07-.6-1.67s-.4-1.24-.55-1.91-.36-1.35-.48-2.06S46.07,28,46,27.25s-.21-1.45-.3-2.16-.16-1.42-.23-2.11c-.12-1.36-.17-2.64-.22-3.74s0-2,0-2.65S45.21,15.59,45.21,15.59Z"/>
            <path class="cls-18" d="M65.74,16.15s-.25,1.4-.62,3.5c-.2,1.05-.38,2.27-.6,3.58s-.42,2.71-.6,4.12c-.08.7-.19,1.4-.25,2.09s-.15,1.37-.19,2-.1,1.3-.11,1.9c0,.31,0,.6,0,.89s0,.56,0,.82,0,.52,0,.76,0,.47.06.68a7.55,7.55,0,0,0,.13,1.11l.19.95-.3-.93a7.77,7.77,0,0,1-.23-1.1q-.06-.33-.12-.69c0-.24,0-.5-.06-.76s0-.55-.06-.84,0-.58,0-.89,0-.62,0-.95,0-.65,0-1c0-.67.08-1.36.15-2.06s.15-1.4.23-2.11c.19-1.41.41-2.82.67-4.13s.53-2.52.77-3.56.49-1.89.66-2.49S65.74,16.15,65.74,16.15Z"/>
            <path class="cls-18" d="M79.89,37.92s0-.33.18-.9c.06-.28.13-.63.23-1s.2-.84.34-1.32.29-1,.45-1.54.33-1.13.56-1.71l.65-1.81c.22-.61.49-1.22.75-1.83s.53-1.22.79-1.82.58-1.17.85-1.73l.83-1.59c.25-.51.53-1,.79-1.4.51-.85,1-1.55,1.26-2.05l.5-.76s-.15.29-.4.82-.62,1.27-1.08,2.14c-.22.44-.48.91-.71,1.44s-.48,1.06-.74,1.62-.54,1.14-.8,1.73-.51,1.21-.76,1.82-.54,1.2-.76,1.82-.47,1.19-.71,1.77-.42,1.14-.62,1.67-.4,1-.55,1.51-.3.9-.44,1.28-.23.71-.32,1Z"/>
            <path class="cls-19" d="M30.77,46.66s0,4.18-2.57,14.25A65.27,65.27,0,0,0,25.92,81l1.62.28s.09-4.18,1-5.89a25.34,25.34,0,0,0,.86,8.17l3.61,1S30.2,71,35.75,46.94Z"/>
            <path class="cls-5" d="M81.48,54.91s1.28-2.34,3.93-.3,1.74,9.37-3.1,8.09C82.08,58.54,81.48,54.91,81.48,54.91Z"/>
            <path class="cls-8" d="M86.14,58.78a2.43,2.43,0,0,1-.17-.23l-.09-.11a.63.63,0,0,0-.12-.1,1,1,0,0,0-.3-.19s-.13,0-.19,0l-.1,0h-.11a1.48,1.48,0,0,0-.45.11l-.22.11-.21.15a1.63,1.63,0,0,0-.36.38,1.59,1.59,0,0,0-.15.21,1.22,1.22,0,0,0-.1.24,1.67,1.67,0,0,0-.11.48,1.77,1.77,0,0,0,.07.46,1.81,1.81,0,0,0,.18.4,2,2,0,0,0,.22.32,1.49,1.49,0,0,0,.21.22c.06.06.12.09.15.12l.06,0h-.07s-.12,0-.2-.07a1.5,1.5,0,0,1-.28-.17,1.37,1.37,0,0,1-.31-.29,1.54,1.54,0,0,1-.29-.43,1.54,1.54,0,0,1-.07-1.22,1.2,1.2,0,0,1,.13-.31,1.61,1.61,0,0,1,.17-.28,2.56,2.56,0,0,1,.47-.46l.27-.17.3-.12a1.37,1.37,0,0,1,.6-.06h.14l.14,0a.61.61,0,0,1,.23.11l.2.14c0,.05.08.12.13.17a.69.69,0,0,1,.14.29Z"/>
            <path class="cls-8" d="M85.31,60.1a1,1,0,0,1-.41.25,1.3,1.3,0,0,1-.51.08.89.89,0,0,1-.31-.06,1.11,1.11,0,0,1-.29-.14,2.49,2.49,0,0,1-.23-.23,1.22,1.22,0,0,1-.15-.27,1.39,1.39,0,0,1-.1-.5,1.16,1.16,0,0,1,0-.35.58.58,0,0,1,0-.13,1.07,1.07,0,0,0,.06.12c0,.07.08.18.15.29l.09.19c0,.06.08.12.11.18s.1.11.13.17l.16.14a1.33,1.33,0,0,0,.38.18l.41.06Z"/>
            <path class="cls-8" d="M50.72,62.81l-.95.71c-.28.22-.59.48-.9.77a1.94,1.94,0,0,0-.61,1c0,.32.26.62.6.85a5.45,5.45,0,0,0,.53.29c.17.09.35.15.51.23l.8.31.31.13-.33,0a6.19,6.19,0,0,1-.87-.11,4.33,4.33,0,0,1-1.2-.4,1.92,1.92,0,0,1-.62-.47,1.19,1.19,0,0,1-.29-.85,1.62,1.62,0,0,1,.32-.78,3,3,0,0,1,.52-.54,6.5,6.5,0,0,1,2.18-1.11Z"/>
            <path class="cls-15" d="M59.66,70.79a7.83,7.83,0,0,0,.18-4.56C57.32,69.29,53,70.53,50.62,71,52,72.07,55.33,73.84,59.66,70.79Z"/>
            <path class="cls-20" d="M54.53,74.41a4.33,4.33,0,0,0,4.24-1.87A5.37,5.37,0,0,0,54.53,74.41Z"/>
            <path class="cls-21" d="M50.62,71a17,17,0,0,1-1.7.27c2.18,2,4,2.93,5.61,3.14a5.37,5.37,0,0,1,4.24-1.87,6.42,6.42,0,0,0,.89-1.75C55.33,73.84,52,72.07,50.62,71Z"/>
            <path class="cls-2" d="M37.57,53.25s.9-2.79,4,.84C40.67,50.84,38,49,37.57,53.25Z"/>
            <path class="cls-2" d="M55.41,52.87S57.92,49.24,61.1,51C60.05,48.08,55.93,48.16,55.41,52.87Z"/>
            <path class="cls-10" d="M41.51,68.69l-2.7,2.77a22.24,22.24,0,0,0,2.09,1.35l2.1-2Z"/>
            <path class="cls-22" d="M38.93,64.86l-3.86,3A17.25,17.25,0,0,0,37,70c1-.93,3.18-2.91,3.27-2.94A16.51,16.51,0,0,0,38.93,64.86Z"/>
            <path class="cls-22" d="M69.14,63.45l6.16,2.73a19.84,19.84,0,0,0,1-2.82L70.07,61Z"/>
            <path class="cls-10" d="M69.22,67.72l4.26,1.65a16.83,16.83,0,0,0,1-1.6L69.91,65.5Z"/>
            <path class="cls-16" d="M91.82,97.16c-4.8,5.38-20.45,14.92-40,13.17-19.36-2.7-27.12-16.26-29.16-20.66a19.43,19.43,0,0,1-2.68-.15c1.81,5.7,11.22,21.85,33.55,24,20.71.85,35.44-9,39.53-15C92.62,98.08,92.23,97.62,91.82,97.16Z"/>
            <path class="cls-13" d="M26,95.41h0v0Z"/>
            <path class="cls-13" d="M32.76,102.63l.17-.08a.4.4,0,0,0-.12-.1Z"/>
            <path class="cls-13" d="M80.65,105l0-.08-.08,0Z"/>
            <path class="cls-13" d="M71.34,108.52l0,0-.07,0Z"/>
            <path class="cls-9" d="M91.82,97.16c-.91-1-1.87-2-2.85-3l-1,6.11-5.7-2.18-1.6,6.86A37.67,37.67,0,0,0,91.82,97.16Z"/>
            <path class="cls-9" d="M62.31,110.14,58.13,104l-6.36,6.37a54.45,54.45,0,0,0,19.53-1.84l-5-4.63Z"/>
            <path class="cls-10" d="M88,100.25l1-6.11A110.86,110.86,0,0,0,72.48,80.59a19.09,19.09,0,0,0-6.43-2.44L58.23,89.8,55.06,79.1a14.23,14.23,0,0,0-2.06.82c-2.11,1-12.32,6.28-22.13,8.62L26,95.39v0H35l-2.14,7a.4.4,0,0,1,.12.1L39.6,99.3l.86,7.8,8-4.85,3.33,8.08L58.13,104l4.18,6.18,4-6.28,5,4.63.07,0,2.92-6.69,6.3,3.19.08,0,1.6-6.86Z"/>
            <path class="cls-9" d="M71.37,108.47a55.91,55.91,0,0,0,9.22-3.5l-6.3-3.19Z"/>
            <path class="cls-9" d="M40.46,107.1l-.86-7.8-6.67,3.25a38.67,38.67,0,0,0,18.84,7.78l-3.33-8.08Z"/>
            <path class="cls-9" d="M26,95.41a37,37,0,0,0,6.78,7l2.14-7Z"/>
            <path class="cls-9" d="M22.61,89.67A34.36,34.36,0,0,0,26,95.39l4.85-6.85A37.09,37.09,0,0,1,22.61,89.67Z"/>
            <path class="cls-19" d="M72.81,45.23S77.23,65.9,74.1,81l2.28.43,1.14-5.85.14,7.56,3.71.14s4.13-21.38-3-38.63C75.81,44.81,72.81,45.23,72.81,45.23Z"/>
            <polygon class="cls-9" points="76.28 46.01 81.82 45.79 79.23 40.2 76.28 46.01"/>
            <path class="cls-23" d="M86,38.2c-8-.47-44-.57-57.21,2.85a18.77,18.77,0,0,0,.67,6.85l.34,0,3.93-6.64,3.18,6.36.65,0,2.92-6.52,3.78,6.25.59,0,3.8-7L52.42,47h.36l3-6.67,4,6.39.42,0,3.5-6.46,3.76,6.17.46,0,3.77-6.72,4,6.41.61,0,3-5.81,2.59,5.59.87,0,3.44-5.44C86.09,39.57,86,38.85,86,38.2Z"/>
            <path class="cls-9" d="M86.13,40.32l-3.44,5.44,3.57-.15S86.26,42.88,86.13,40.32Z"/>
            <polygon class="cls-9" points="67.86 46.35 75.67 46.04 71.63 39.63 67.86 46.35"/>
            <polygon class="cls-9" points="44.83 47.28 52.42 46.97 48.63 40.29 44.83 47.28"/>
            <polygon class="cls-9" points="60.15 46.66 67.4 46.37 63.64 40.2 60.15 46.66"/>
            <polygon class="cls-9" points="29.78 47.88 36.89 47.6 33.71 41.24 29.78 47.88"/>
            <polygon class="cls-9" points="37.54 47.57 44.24 47.3 40.46 41.05 37.54 47.57"/>
            <polygon class="cls-9" points="52.78 46.96 59.72 46.68 55.76 40.29 52.78 46.96"/>
            <g class="cls-24">
                <path class="cls-10" d="M72.48,80.59a19.09,19.09,0,0,0-6.43-2.44L58.23,89.8,55.06,79.1a14.23,14.23,0,0,0-2.06.82A137.77,137.77,0,0,1,39.06,86a37.69,37.69,0,0,0,7.72-1.78c6.54-2.37,8.64,2.78,11.14,8.35,5.71-5.71,9.72-13.37,15.32-9A67.14,67.14,0,0,1,84.52,95.39l-5-.14-1.25,5-6.54-2.64-1.54,5.84-5-3.48L62,105.27l-5.43-6.4-4,6.54-2.79-7.1-7,3.76-.28-7.24L35.78,98l1.53-5.71-7.24,1,2.61-5.22c-.6.16-1.21.32-1.81.46L26,95.39v0H35l-2.14,7a.4.4,0,0,1,.12.1L39.6,99.3l.86,7.8,8-4.85,3.33,8.08L58.13,104l4.18,6.18,4-6.28,5,4.63.07,0,2.92-6.69,6.3,3.19.08,0,1.6-6.86,5.7,2.18,1-6.11A110.86,110.86,0,0,0,72.48,80.59Z"/>
            </g>
        </g>
    </g>
</svg>