<svg id="Layer_1" data-name="Layer 1" xmlns="http://www.w3.org/2000/svg" viewBox="0 0 119.17 183.15"><defs><style>.cls-1{fill:#1f0c0d;}.cls-2{fill:#1fa3ab;}.cls-3{fill:#fade99;}.cls-4{fill:#fa9652;}.cls-5{fill:#e02c26;}</style></defs><path class="cls-1" d="M59.7,52.88c-5,0-18.37-10.28-18.37-22.65S54.67,7.58,59.7,7.58s18.38,10,18.38,22.65S64.21,52.88,59.7,52.88Zm0-43.45c-4.05,0-16.52,9.36-16.52,20.8S55.65,51,59.7,51c3.35,0,16.53-9.09,16.53-20.8C76.23,18.79,63.75,9.43,59.7,9.43Z"/><path class="cls-1" d="M45.46,57.27A20.48,20.48,0,0,1,35,54.67C24.33,48.5,22.09,31.8,24.61,27.43c2-3.4,10.22-7.2,18.31-7.2a20.62,20.62,0,0,1,10.49,2.62c6.33,3.65,9.07,10.63,10.13,14.47,1.43,5.11,1.55,10.6.3,12.77C61.93,53.41,53.48,57.27,45.46,57.27ZM42.92,22.08c-7.86,0-15.26,3.78-16.71,6.28-2,3.51-.15,19,9.76,24.71a18.68,18.68,0,0,0,9.49,2.35c8.17,0,15.51-4.05,16.78-6.26.87-1.5.93-6.27-.48-11.34-1-3.57-3.52-10-9.27-13.37A18.89,18.89,0,0,0,42.92,22.08Z"/><path class="cls-1" d="M42.75,74.91c-8,0-16.62-3.92-18.49-7.15-2.59-4.49-.49-21,10.42-27.25A20.09,20.09,0,0,1,44.84,38c8.44,0,17,4.24,18.65,7.1,1.35,2.35,1.27,7.79-.21,12.94-1.08,3.76-3.84,10.62-10.22,14.3A20.35,20.35,0,0,1,42.75,74.91Zm2.09-35.06a18.3,18.3,0,0,0-9.23,2.26c-9.91,5.72-11.77,21.21-9.75,24.72,1.23,2.14,8.77,6.23,16.89,6.23a18.56,18.56,0,0,0,9.38-2.32C58,67.39,60.5,61,61.5,57.52c1.46-5.08,1.34-9.83.39-11.49C60.63,43.86,52.76,39.85,44.84,39.85Z"/><path class="cls-1" d="M59,88.22c-5.18,0-18.38-10-18.38-22.65,0-12.46,13.87-22.65,18.38-22.65,5,0,18.37,10.29,18.37,22.65S64,88.22,59,88.22Zm0-43.45c-3.35,0-16.53,9.1-16.53,20.8C42.47,77,55,86.37,59,86.37S75.52,77,75.52,65.57,63.05,44.77,59,44.77Z"/><path class="cls-1" d="M75.78,75.57A20.62,20.62,0,0,1,65.29,73C59,69.3,56.22,62.32,55.16,58.48c-1.43-5.11-1.55-10.6-.3-12.76,1.92-3.33,10.36-7.19,18.38-7.19a20.48,20.48,0,0,1,10.42,2.6c10.71,6.18,13,22.88,10.43,27.24C92.13,71.77,83.88,75.57,75.78,75.57ZM73.24,40.38c-8.17,0-15.51,4-16.78,6.26-.87,1.51-.93,6.27.48,11.34,1,3.57,3.52,10.05,9.27,13.37a18.92,18.92,0,0,0,9.57,2.37c7.86,0,15.26-3.78,16.71-6.28,2-3.51.15-19-9.75-24.71A18.75,18.75,0,0,0,73.24,40.38Z"/><path class="cls-1" d="M73.85,57.8c-8.43,0-17-4.24-18.64-7.1-1.35-2.35-1.27-7.79.21-12.93C56.5,34,59.26,27.14,65.64,23.46A20.35,20.35,0,0,1,76,20.9c8,0,16.62,3.91,18.49,7.15,1.41,2.43,1.33,7.76-.18,13C93.18,44.77,90.41,51.6,84,55.29A20.1,20.1,0,0,1,73.85,57.8ZM76,22.74a18.56,18.56,0,0,0-9.38,2.32c-5.82,3.36-8.37,9.72-9.37,13.22-1.46,5.08-1.34,9.84-.39,11.49C58.07,52,65.94,56,73.85,56a18.31,18.31,0,0,0,9.24-2.27c5.83-3.37,8.39-9.7,9.39-13.18C94,35.25,93.8,30.64,92.84,29,91.61,26.83,84.07,22.74,76,22.74Z"/><path class="cls-2" d="M58.72,147.62l-4.22,5.82-3.59,4.95-.15-.84,3.48-5.87-3.87,3.43a62.29,62.29,0,0,1-.57-6.28l8.92-12.29,8.91,12.28a68.76,68.76,0,0,1-1.1,9.56l-3.59-4.94Z"/><path class="cls-3" d="M62.09,175.26c-1.42,4-2.72,6.61-3.37,6.61s-1.95-2.63-3.37-6.61l3.37-4.64Z"/><path class="cls-2" d="M55.29,175.07c-.8-2.25-1.63-4.91-2.39-7.79l5.82-8,5.82,8c-.76,2.87-1.59,5.55-2.38,7.8l-3.44-4.74Z"/><path class="cls-3" d="M58.72,170.62l-3.37,4.64-.06-.19,3.43-4.73,3.44,4.74a1.34,1.34,0,0,0-.07.18Z"/><path class="cls-3" d="M63.2,159.83l2.25,3.8c-.27,1.17-.56,2.32-.85,3.45l-1.66-2.28L58.72,159,54.5,164.8l-1.66,2.28c-.49-1.87-1-3.81-1.37-5.78l2.09-3.65-2.41,2.1-.24-1.36,3.59-4.95,4.22-5.82,4.22,5.82,3.59,4.94c-.23,1.26-.47,2.51-.74,3.75Z"/><path class="cls-3" d="M52.9,167.28l-.06-.2,1.66-2.28L58.72,159l4.22,5.82,1.66,2.28-.06.2-5.82-8Z"/><path class="cls-3" d="M49.8,148.83a27.18,27.18,0,0,1,.47-6.81c.46-2.06.81-4.35,1.1-6.71l7.35-10.13,7.35,10.13c.16,1.24.32,2.46.52,3.63l-3.39-3,4.21,7.37a30.85,30.85,0,0,1,.22,5.47l-8.91-12.28Z"/><path class="cls-2" d="M58.72,124.9l-4.22,5.82L51.42,135c.11-.9.21-1.82.31-2.74l2.51-4.39-2.26,2c.28-2.74.55-5.45.9-7.94l5.84-8.06,5.84,8c.17,1.23.32,2.51.47,3.82l-1.83-.87,1.93,1.83c.29,2.75.56,5.59.9,8.33l-3.09-4.25Z"/><path class="cls-3" d="M54.5,130.72l4.22-5.82,4.22,5.82L66,135c0,.11,0,.23,0,.34l-7.35-10.13-7.35,10.13c0-.12,0-.23.05-.35Z"/><path class="cls-3" d="M58.72,113.54l-4.22,5.82-1.57,2.16c.22-1.56.47-3,.78-4.36l.53-.5-.46.22c.95-3.92,2.4-6.56,4.94-6.56,3.45,0,4.89,4.85,5.79,11.2l-1.57-2.16Z"/><path class="cls-3" d="M52.88,121.87c0-.12,0-.24,0-.35l1.57-2.16,4.22-5.82,4.22,5.82,1.57,2.16c0,.11,0,.23,0,.34l-5.84-8Z"/><polygon class="cls-1" points="58.72 179.45 58.01 92.81 59.43 92.81 58.72 179.45"/><path class="cls-4" d="M71.34,128l1.51-1.35-1.32,2.22c1.32,5.66,3.25,10.65,3.94,10.65s2.93-5.82,4.23-12l-1.22-2.14,1.4,1.23c.09-.43.16-.85.24-1.28l-2-3.43,2.26,2a22.59,22.59,0,0,0,.06-7.65,55.46,55.46,0,0,1-.85-5.72L78.08,108l1.32,1.16a63,63,0,0,0-1-7.39l-.31-.29.27.13c-.55-2.29-1.4-3.83-2.88-3.83-2.44,0-3.16,4.13-3.69,9l1.07-.5-1.13,1.06c-.25,2.4-.47,4.93-.85,7.19l2-1.73L70.39,117C70,120,70.48,124.09,71.34,128Z"/><path class="cls-1" d="M71.27,127.71l4.26-5.86,4.16,5.73s0,0,0,0l-1.22-2.14,1.4,1.23c.09-.43.16-.85.24-1.28l-2-3.43,2.26,2c.09-.66.17-1.3.23-1.93L78,118.45l-2.47-3.4-2.47,3.4-2.68,3.7A54.3,54.3,0,0,0,71.27,127.71Z"/><path class="cls-1" d="M70.87,114.47l2-1.73L72,114.3l3.57-4.92L80.36,116a54.85,54.85,0,0,1-.81-5.48L78.08,108l1.32,1.16-.15-1.42L78,106l-2.47-3.4L73.06,106l-1.4,1.94C71.43,110.12,71.21,112.41,70.87,114.47Z"/><path class="cls-1" d="M73.61,136c.78,2.16,1.49,3.56,1.86,3.56s1.1-1.45,1.9-3.67l-1.84-2.54Z"/><polygon class="cls-1" points="75.47 138.13 75.05 87.53 75.88 87.53 75.47 138.13"/><path class="cls-4" d="M46.1,128l-1.52-1.35,1.32,2.22c-1.31,5.66-3.25,10.65-3.93,10.65s-2.94-5.82-4.24-12L39,125.39l-1.4,1.23c-.08-.43-.16-.85-.23-1.28l2-3.43-2.26,2a23.12,23.12,0,0,1-.06-7.65,50.5,50.5,0,0,0,.85-5.72L39.35,108,38,109.14a67.59,67.59,0,0,1,1-7.39l.31-.29-.26.13c.55-2.29,1.39-3.83,2.88-3.83,2.43,0,3.15,4.13,3.68,9l-1.07-.5,1.13,1.06c.25,2.4.48,4.93.85,7.19l-2-1.73L47,117C47.47,120,47,124.09,46.1,128Z"/><path class="cls-1" d="M46.16,127.71l-4.25-5.86-4.16,5.73,0,0L39,125.39l-1.4,1.23c-.08-.43-.16-.85-.23-1.28l2-3.43-2.26,2c-.09-.66-.16-1.3-.22-1.93l2.57-3.54,2.47-3.4,2.46,3.4,2.69,3.7A51.76,51.76,0,0,1,46.16,127.71Z"/><path class="cls-1" d="M46.56,114.47l-2-1.73.89,1.56-3.56-4.92L37.08,116a52.18,52.18,0,0,0,.8-5.48L39.35,108,38,109.14l.15-1.42L39.44,106l2.47-3.4,2.46,3.4,1.41,1.94C46,110.12,46.22,112.41,46.56,114.47Z"/><path class="cls-1" d="M43.83,136c-.79,2.16-1.5,3.56-1.86,3.56s-1.1-1.45-1.9-3.67l1.84-2.54Z"/><polygon class="cls-1" points="41.97 138.13 42.38 87.53 41.55 87.53 41.97 138.13"/><path class="cls-3" d="M87.89,132.72,90,130.85l-1.83,3.09c1.83,7.87,4.52,14.83,5.47,14.83s4.09-8.11,5.9-16.73l-1.7-3,2,1.71c.12-.59.23-1.19.33-1.78l-2.84-4.78,3.15,2.79a31.73,31.73,0,0,0,.08-10.65,74.82,74.82,0,0,1-1.18-8l-2-3.57,1.84,1.61a90.94,90.94,0,0,0-1.4-10.28l-.44-.41.37.18c-.77-3.19-1.94-5.34-4-5.34-3.39,0-4.39,5.76-5.13,12.49l1.49-.7-1.57,1.48c-.35,3.34-.67,6.86-1.18,10L90,111.45l-3.43,6C86,121.51,86.7,127.25,87.89,132.72Z"/><path class="cls-5" d="M87.8,132.29l5.93-8.16,5.79,8a.64.64,0,0,0,0-.07l-1.7-3,2,1.71c.12-.59.23-1.19.33-1.78l-2.84-4.78,3.15,2.79c.13-.91.23-1.8.31-2.69l-3.58-4.92-3.43-4.74-3.44,4.74-3.73,5.14A70.77,70.77,0,0,0,87.8,132.29Z"/><path class="cls-5" d="M87.25,113.86,90,111.45l-1.24,2.17,5-6.85,6.72,9.26a73.22,73.22,0,0,1-1.12-7.64l-2-3.57,1.84,1.61c-.07-.66-.14-1.32-.2-2L97.16,102,93.73,97.3,90.29,102l-2,2.69C88,107.8,87.72,111,87.25,113.86Z"/><path class="cls-5" d="M91.05,143.81c1.09,3,2.08,5,2.59,5s1.53-2,2.65-5.12l-2.56-3.53Z"/><polygon class="cls-1" points="93.64 146.81 93.06 76.34 94.22 76.34 93.64 146.81"/><path class="cls-1" d="M59.35,93.77A45.87,45.87,0,1,1,105.22,47.9,45.92,45.92,0,0,1,59.35,93.77Zm0-85.54A39.68,39.68,0,1,0,99,47.9,39.72,39.72,0,0,0,59.35,8.23Z"/><path class="cls-4" d="M62.13,8.51A2.43,2.43,0,1,1,59.7,6.09,2.42,2.42,0,0,1,62.13,8.51Z"/><path class="cls-4" d="M26.49,25.72a2.43,2.43,0,1,1-3.31.89A2.42,2.42,0,0,1,26.49,25.72Z"/><path class="cls-4" d="M23.57,65.19a2.42,2.42,0,1,1-.89,3.31A2.42,2.42,0,0,1,23.57,65.19Z"/><path class="cls-4" d="M56.29,87.45a2.43,2.43,0,1,1,2.43,2.43A2.42,2.42,0,0,1,56.29,87.45Z"/><path class="cls-4" d="M91.93,70.24a2.43,2.43,0,1,1,3.32-.89A2.42,2.42,0,0,1,91.93,70.24Z"/><path class="cls-4" d="M94.85,30.77a2.42,2.42,0,1,1,.89-3.31A2.42,2.42,0,0,1,94.85,30.77Z"/><path class="cls-4" d="M68.12,49.56a1.92,1.92,0,1,1,.7-2.62A1.91,1.91,0,0,1,68.12,49.56Z"/><path class="cls-4" d="M65.16,41.08a1.92,1.92,0,1,1-1.92-1.91A1.91,1.91,0,0,1,65.16,41.08Z"/><path class="cls-4" d="M56.33,39.42a1.92,1.92,0,1,1-2.61.7A1.91,1.91,0,0,1,56.33,39.42Z"/><path class="cls-4" d="M50.48,46.23a1.91,1.91,0,1,1-.7,2.61A1.91,1.91,0,0,1,50.48,46.23Z"/><path class="cls-4" d="M53.45,54.7a1.92,1.92,0,1,1,3.83,0,1.92,1.92,0,1,1-3.83,0Z"/><path class="cls-4" d="M62.26,56.37a1.92,1.92,0,0,1,1.92-3.32,1.92,1.92,0,0,1-1.92,3.32Z"/><path class="cls-2" d="M89.71,44.49a3.41,3.41,0,1,0,3.41,3.41A3.41,3.41,0,0,0,89.71,44.49Z"/><path class="cls-2" d="M71.53,20a3.41,3.41,0,1,0,4.65-1.25A3.4,3.4,0,0,0,71.53,20Z"/><path class="cls-2" d="M41.21,23.46a3.41,3.41,0,1,0,1.24-4.65A3.39,3.39,0,0,0,41.21,23.46Z"/><path class="cls-2" d="M29.06,51.47a3.41,3.41,0,1,0-3.4-3.41A3.41,3.41,0,0,0,29.06,51.47Z"/><path class="cls-2" d="M47.25,76a3.41,3.41,0,1,0-4.66,1.24A3.41,3.41,0,0,0,47.25,76Z"/><path class="cls-2" d="M77.57,72.5a3.41,3.41,0,1,0-1.25,4.65A3.4,3.4,0,0,0,77.57,72.5Z"/><path class="cls-5" d="M74.85,36.54a2.81,2.81,0,1,0,2.8,2.82A2.81,2.81,0,0,0,74.85,36.54Z"/><path class="cls-5" d="M57.21,28.88a2.81,2.81,0,1,0,3.84-1A2.81,2.81,0,0,0,57.21,28.88Z"/><path class="cls-5" d="M41.75,40.32a2.81,2.81,0,1,0,1-3.84A2.82,2.82,0,0,0,41.75,40.32Z"/><path class="cls-5" d="M43.93,59.42a2.81,2.81,0,1,0-2.8-2.81A2.81,2.81,0,0,0,43.93,59.42Z"/><path class="cls-5" d="M61.57,67.09a2.81,2.81,0,1,0-3.84,1A2.82,2.82,0,0,0,61.57,67.09Z"/><path class="cls-5" d="M77,55.65a2.81,2.81,0,1,0-1,3.83A2.8,2.8,0,0,0,77,55.65Z"/><path class="cls-3" d="M68.32,23.9a1.79,1.79,0,1,0-1.79,1.8A1.79,1.79,0,0,0,68.32,23.9Z"/><path class="cls-3" d="M43.07,28a1.79,1.79,0,1,0-1.79,3.09A1.79,1.79,0,1,0,43.07,28Z"/><path class="cls-3" d="M34,51.87A1.79,1.79,0,0,0,35.75,55,1.79,1.79,0,1,0,34,51.87Z"/><path class="cls-3" d="M50.1,71.7a1.79,1.79,0,1,0,1.8-1.79A1.8,1.8,0,0,0,50.1,71.7Z"/><path class="cls-3" d="M75.35,67.64a1.79,1.79,0,1,0-.65-2.45A1.8,1.8,0,0,0,75.35,67.64Z"/><path class="cls-3" d="M84.46,43.74A1.79,1.79,0,1,0,82,43.09,1.8,1.8,0,0,0,84.46,43.74Z"/><path class="cls-3" d="M54.26,22.71a1.79,1.79,0,1,0-.57,2.47A1.8,1.8,0,0,0,54.26,22.71Z"/><path class="cls-3" d="M35,39.54a1.8,1.8,0,1,0,1.86,1.73A1.8,1.8,0,0,0,35,39.54Z"/><path class="cls-3" d="M40,64.64a1.79,1.79,0,1,0,2.42-.74A1.79,1.79,0,0,0,40,64.64Z"/><path class="cls-3" d="M64.16,72.89a1.79,1.79,0,1,0,.57-2.47A1.79,1.79,0,0,0,64.16,72.89Z"/><path class="cls-3" d="M83.42,56.06a1.79,1.79,0,0,0-.13-3.58,1.79,1.79,0,0,0,.13,3.58Z"/><path class="cls-3" d="M78.47,31a1.79,1.79,0,1,0-2.43.74A1.79,1.79,0,0,0,78.47,31Z"/><path class="cls-3" d="M29.55,132.72l-2.11-1.87,1.83,3.09c-1.83,7.87-4.52,14.83-5.48,14.83S19.71,140.66,17.9,132l1.7-3-2,1.71c-.11-.59-.22-1.19-.32-1.78l2.83-4.78L17,127c-.57-4-.72-7.86-.09-10.65a72.26,72.26,0,0,0,1.19-8l2-3.57-1.84,1.61a93.12,93.12,0,0,1,1.41-10.28l.43-.41-.37.18c.77-3.19,1.95-5.34,4-5.34,3.4,0,4.4,5.76,5.13,12.49l-1.48-.7L29,103.85c.35,3.34.66,6.86,1.18,10l-2.75-2.41,3.42,6C31.46,121.51,30.73,127.25,29.55,132.72Z"/><path class="cls-5" d="M29.63,132.29l-5.92-8.16-5.8,8s0,0,0-.07l1.7-3-2,1.71c-.11-.59-.22-1.19-.32-1.78l2.83-4.78L17,127c-.13-.91-.24-1.8-.32-2.69l3.58-4.92,3.44-4.74,3.43,4.74,3.74,5.14A73.34,73.34,0,0,1,29.63,132.29Z"/><path class="cls-5" d="M30.19,113.86l-2.75-2.41,1.24,2.17-5-6.85L17,116a73.13,73.13,0,0,0,1.13-7.64l2-3.57-1.84,1.61.21-2L20.27,102l3.44-4.74L27.14,102l2,2.69C29.42,107.8,29.72,111,30.19,113.86Z"/><path class="cls-5" d="M26.38,143.81c-1.09,3-2.08,5-2.59,5s-1.53-2-2.65-5.12l2.57-3.53Z"/><polygon class="cls-1" points="23.79 146.81 24.37 76.34 23.21 76.34 23.79 146.81"/></svg>