<svg id="Layer_1" data-name="Layer 1" xmlns="http://www.w3.org/2000/svg" viewBox="0 0 97.02 204.32"><defs><style>.cls-1{fill:#c49a6c;}.cls-1,.cls-2,.cls-3,.cls-4,.cls-6{stroke:#594a42;stroke-miterlimit:10;stroke-width:3px;}.cls-2{fill:#fade99;}.cls-3{fill:#e02c26;}.cls-4{fill:#fa9652;}.cls-5{fill:#1fa3ab;}.cls-6{fill:none;}.cls-7{fill:#231f20;opacity:0.2;isolation:isolate;}</style></defs><rect class="cls-1" x="38.82" y="91.46" width="19.4" height="33.58"/><path class="cls-2" d="M48.52,14.51a39.91,39.91,0,1,0,39.9,39.91h0a39.9,39.9,0,0,0-39.9-39.9Zm0,62.37A22.48,22.48,0,1,1,71,54.41h0A22.46,22.46,0,0,1,48.52,76.87h0Z"/><path class="cls-3" d="M64.81,181.67a12.41,12.41,0,0,1-12.4,12.43H44.64a12.41,12.41,0,0,1-12.42-12.4V119.75a12.42,12.42,0,0,1,12.42-12.41H52.4a12.41,12.41,0,0,1,12.41,12.41Z"/><path class="cls-4" d="M42.2,29.75A14.53,14.53,0,1,1,27.68,15.22h0A14.53,14.53,0,0,1,42.2,29.75Z"/><path class="cls-3" d="M87.26,29.75A14.53,14.53,0,1,1,72.74,15.22,14.53,14.53,0,0,1,87.26,29.75Z"/><path class="cls-5" d="M87.26,78.16A14.53,14.53,0,1,1,72.74,63.63,14.52,14.52,0,0,1,87.26,78.16Z"/><path class="cls-6" d="M87.26,78.16A14.53,14.53,0,1,1,72.74,63.63,14.52,14.52,0,0,1,87.26,78.16Z"/><path class="cls-2" d="M42.2,78.16A14.53,14.53,0,1,1,27.68,63.63,14.52,14.52,0,0,1,42.2,78.16Z"/><path class="cls-7" d="M88.42,56.54A39.71,39.71,0,0,0,84.8,40,14.52,14.52,0,0,0,64.49,20a39.92,39.92,0,0,0-16-3.32V34.06a22.47,22.47,0,0,1,10.53,2.62,14.5,14.5,0,0,0,9.13,9,22.36,22.36,0,0,1,.54,20.68,14.52,14.52,0,0,0-10,10.21A22.21,22.21,0,0,1,48.52,79V196.24H52.4a12.41,12.41,0,0,0,12.41-12.41V121.91a12.41,12.41,0,0,0-6.6-11V95.24a38.42,38.42,0,0,0,7.08-2.5A14.51,14.51,0,0,0,85.05,72.6,40,40,0,0,0,88.42,56.54Z"/></svg>