<svg id="Calque_1" data-name="Calque 1" xmlns="http://www.w3.org/2000/svg" viewBox="0 0 247.11 50.97"><defs><style>.cls-1{fill:#5e2619;}.cls-2{fill:#f99c15;}</style></defs><path class="cls-1" d="M58.34,39.24a5.27,5.27,0,0,1,.11,1.49c0,.26-.06.5-.08.74a4.35,4.35,0,0,1-.14.8,13.44,13.44,0,0,1-.33,1.83,6.64,6.64,0,0,1-.72,1.71c-.22.36-.46.72-.71,1.07a5.72,5.72,0,0,1-.94,1,6,6,0,0,1-1.27.83l-1.16.49a10.2,10.2,0,0,1-4.09.89c-.95,0-1.93,0-2.92,0a12.28,12.28,0,0,1-2.93-.53,5.05,5.05,0,0,1-.74-.27l-.75-.33a4.18,4.18,0,0,1-1.43-1,7.4,7.4,0,0,1-.61-.83,3,3,0,0,1-.38-.94,5.25,5.25,0,0,1-.09-.55,5.06,5.06,0,0,1,0-.55,4.61,4.61,0,0,1,0-1c0-.74,0-1.46.08-2.18s.08-1.44.08-2.18.06-1.67.06-2.46,0-1.61,0-2.45.07-1.69.08-2.54,0-1.69,0-2.54V25.5a.61.61,0,0,1-.05-.28.61.61,0,0,0-.06-.28,3.18,3.18,0,0,0,0-.47,3.1,3.1,0,0,1,0-.46,4.16,4.16,0,0,1,.19-.92,1.73,1.73,0,0,1,.52-.74,2.28,2.28,0,0,1,1.66-.72,2.45,2.45,0,0,1,1.43.47A2,2,0,0,1,44,23.34c.08.52.13,1,.17,1.47s.05.94.05,1.46c0,1.4,0,2.8,0,4.22s-.06,2.84-.14,4.28c.22-.15.37-.24.44-.28a8.22,8.22,0,0,1,.75-.47c.24-.13.49-.26.74-.41.41-.26.81-.51,1.22-.75a10,10,0,0,0,1.16-.8,1.46,1.46,0,0,0,.38-.27,2.2,2.2,0,0,1,.34-.28l.82-.83a14.16,14.16,0,0,0,1.27-2.31c.08-.3.13-.5.17-.61,0-.3.06-.57.08-.83s0-.53,0-.83.06-.57.08-.83,0-.53,0-.82l-.22-.33c-.08-.11-.15-.23-.22-.34a2.5,2.5,0,0,0-.28-.49l-.5-.5a3.45,3.45,0,0,1-.41-.25l-.41-.3a5.42,5.42,0,0,1-.5-.33l-.5-.39a.48.48,0,0,0-.22-.14.43.43,0,0,1-.22-.13,7.14,7.14,0,0,1-.94-.39.57.57,0,0,0,.28.14.5.5,0,0,1,.28.14,3,3,0,0,0-.58-.17l-.58-.11a1.55,1.55,0,0,0-.39-.06,1,1,0,0,1-.33-.05c-.26,0-.51-.06-.75-.08s-.48,0-.74,0c0,0-.07,0-.08,0s0,0-.09,0A2.32,2.32,0,0,1,43,21l-.61-.11a2.32,2.32,0,0,1-1.43-1A2.64,2.64,0,0,1,40.74,18a2.36,2.36,0,0,1,.38-.82,1.59,1.59,0,0,1,.72-.56c.4-.18.8-.34,1.19-.49A3.37,3.37,0,0,1,44.27,16h0l.75,0,.74.09,1,.11c.33,0,.68.09,1,.16a1.08,1.08,0,0,0,.38.06,2.12,2.12,0,0,1,.44.05,1.19,1.19,0,0,0,.36.17,1.19,1.19,0,0,1,.36.17,5.66,5.66,0,0,1,1.22.49,4.33,4.33,0,0,1,.6.36,3.93,3.93,0,0,1,.55.47l.36.25.36.25.5.33.44.33.44.33a6.73,6.73,0,0,1,.94,1.16L55.58,22a4.66,4.66,0,0,1,.72,2.6v.55a2.57,2.57,0,0,1-.06.55c0,.37-.05.75-.05,1.13a5.93,5.93,0,0,1-.11,1.13c0,.3-.07.58-.11.86a4,4,0,0,1-.22.85c-.08.19-.14.35-.19.5l-.2.5-.49,1a2.4,2.4,0,0,1-.28.5,2.4,2.4,0,0,0-.28.5.39.39,0,0,0-.13.22.62.62,0,0,1-.14.22,4.8,4.8,0,0,1-.36.52,4.69,4.69,0,0,1-.42.47l-.16.17,0,.05a2.72,2.72,0,0,1,.61.17l.55.22s-.06-.06-.08-.06a.15.15,0,0,1-.08-.05.94.94,0,0,0,.33.14.43.43,0,0,1,.27.13,4.43,4.43,0,0,0,.45.2,1.93,1.93,0,0,1,.38.19,1.87,1.87,0,0,1,.39.25,2.38,2.38,0,0,0,.39.25,7.24,7.24,0,0,1,1.07,1.21,6.29,6.29,0,0,1,.75,1.43c0,.15.07.3.11.45A2.12,2.12,0,0,1,58.34,39.24ZM43.61,44.59v0ZM53.71,41a3,3,0,0,0,0-.46v-.42a.89.89,0,0,0-.11-.38.12.12,0,0,0,0-.09s0,0,0-.08a1.17,1.17,0,0,0-.17-.14.74.74,0,0,1-.17-.14l-.11-.08a.59.59,0,0,1-.11-.08,1,1,0,0,1-.33-.11,2.77,2.77,0,0,0-.58-.17l-.58-.11c-.55-.07-1.1-.12-1.65-.14s-1.11,0-1.66,0a5.57,5.57,0,0,1-.74.17,5.61,5.61,0,0,0-.75.16l-1,.33-.55.17a.37.37,0,0,1-.17,0,.15.15,0,0,0-.11.06,1.4,1.4,0,0,1-.88,0,4.76,4.76,0,0,0-.06.72v.72l-.16,2.15q0,.39,0,.75c0,.24,0,.49,0,.74a2.9,2.9,0,0,1,.39.17,4.22,4.22,0,0,0,.83.27l.38.09.39.08c.26,0,.51,0,.77,0s.53,0,.83,0a18.39,18.39,0,0,0,2.1,0,13.72,13.72,0,0,0,2.48-.77l.25-.11a1.48,1.48,0,0,0,.3-.16,1.07,1.07,0,0,1,.28-.28,1.9,1.9,0,0,1,.25-.47,3.38,3.38,0,0,0,.24-.41,4.1,4.1,0,0,0,.28-1.08C53.58,41.73,53.63,41.37,53.71,41Z"/><path class="cls-1" d="M71.59,17.49a6.26,6.26,0,0,1,1.43-.6,5.54,5.54,0,0,1,1.55-.23,2.63,2.63,0,0,1,.41,0,2.77,2.77,0,0,0,.42,0,12.08,12.08,0,0,1,1.27.33c.47.15,1,.32,1.46.53s1,.41,1.43.63a7.19,7.19,0,0,1,1.14.66c.22.19.43.35.63.5a5.31,5.31,0,0,1,.58.5l.88.88.89.88a2.49,2.49,0,0,1,.77,1.6,2.08,2.08,0,0,1-.55,1.71,3.19,3.19,0,0,1-.75.56,2.41,2.41,0,0,1-.85.27,3.2,3.2,0,0,1-.94-.14,1.54,1.54,0,0,1-.78-.47L79,23.65a10.63,10.63,0,0,0-1.85-1.44,5.44,5.44,0,0,0-2-.72,2.63,2.63,0,0,0-2,.64,3.81,3.81,0,0,0-.88,1,1.36,1.36,0,0,0-.28.61,4.93,4.93,0,0,0-.22.83,1.48,1.48,0,0,1,0,.41,1.51,1.51,0,0,0,.06.41,5,5,0,0,0,.39,1.22,2.29,2.29,0,0,0,.24.47,1.73,1.73,0,0,1,.25.47,5.69,5.69,0,0,1,.39.66,2.55,2.55,0,0,0,.44.61,9.28,9.28,0,0,0,.69.71c.24.23.49.46.75.72s.35.38.52.58.34.4.52.58l1.19,1.41,1.19,1.41.71.71.78.89a11.45,11.45,0,0,1,.72.93q.17.22.3.45a3.72,3.72,0,0,1,.25.49l.36.69c.12.24.24.49.35.75a7.46,7.46,0,0,1,.28.88c.07.3.15.61.22.94a7.44,7.44,0,0,1,0,2.21,8,8,0,0,1-.94,3,10.57,10.57,0,0,1-2.26,2.65,5,5,0,0,1-1.66.88,7.32,7.32,0,0,1-1.82.34,6.51,6.51,0,0,1-1.4-.06L73,49.78a10.27,10.27,0,0,1-2.7-.83,12.46,12.46,0,0,1-1.46-.74,7,7,0,0,1-1.3-1c-.22-.22-.42-.44-.61-.64s-.37-.41-.55-.63a5.89,5.89,0,0,1-.58-.83c-.16-.3-.34-.59-.52-.88a7.57,7.57,0,0,1-.39-1.11c-.07-.26-.14-.5-.19-.74a3.08,3.08,0,0,1-.09-.75,3,3,0,0,1,0-.47,2.31,2.31,0,0,0-.06-.47,2,2,0,0,1,.14-.93,3,3,0,0,1,.47-.83,2.47,2.47,0,0,1,1.55-.78,2.66,2.66,0,0,1,1.76.56,2.47,2.47,0,0,1,.78,1.6,3.45,3.45,0,0,1,0,.66,1,1,0,0,1,.06.33,1,1,0,0,0,0,.33,2.11,2.11,0,0,0,.28.77,3.2,3.2,0,0,0,.66.89,4,4,0,0,0,.77.77,11.59,11.59,0,0,0,1.82.88,9,9,0,0,0,1.19.25l1.19.19a2.83,2.83,0,0,0,.66,0,1,1,0,0,0,.33-.11.38.38,0,0,1,.11-.08A.44.44,0,0,0,76.5,45a4.83,4.83,0,0,0,.39-.41l.33-.41a2.6,2.6,0,0,1,.22-.47,4.22,4.22,0,0,0,.22-.47,3.3,3.3,0,0,0,.17-1.05,2.62,2.62,0,0,0-.06-.66c-.07-.22-.15-.44-.22-.64s-.15-.41-.22-.63l-.53-.86a7.58,7.58,0,0,0-.58-.85c-.29-.34-.58-.66-.88-1s-.59-.63-.88-1l-.66-.77c-.22-.26-.43-.51-.61-.77s-.37-.38-.55-.58-.37-.41-.55-.64l-.83-.82-.83-.83-.58-.66a3.66,3.66,0,0,1-.52-.72.45.45,0,0,1-.14-.25.57.57,0,0,0-.14-.25c-.11-.18-.21-.36-.3-.52l-.31-.53a8.5,8.5,0,0,1-.49-.88,4.21,4.21,0,0,1-.34-.94c-.07-.29-.13-.57-.19-.83s-.12-.53-.19-.82a6,6,0,0,1-.08-1.33,9.83,9.83,0,0,1,.13-1.32,5.74,5.74,0,0,0,.17-.61c.07-.22.15-.45.22-.69a2.43,2.43,0,0,1,.33-.69A11.77,11.77,0,0,1,68.75,20a6.37,6.37,0,0,1,.91-1,11.94,11.94,0,0,1,.91-.83A5.94,5.94,0,0,1,71.59,17.49Z"/><path class="cls-1" d="M119.16,46.52a2.36,2.36,0,0,1,.2,1.77,2.3,2.3,0,0,1-1.08,1.43,2.16,2.16,0,0,1-1.77.25,2.28,2.28,0,0,1-1.43-1.07,6.91,6.91,0,0,1-.55-1.13c-.15-.39-.32-.79-.5-1.19a3.58,3.58,0,0,0-.28-.8c-.11-.24-.22-.51-.33-.8-1-2.39-2.13-4.77-3.31-7.12-.07-.19-.14-.34-.19-.47s-.12-.29-.19-.47a.33.33,0,0,1-.23-.06h-.22c-.44-.07-.88-.12-1.32-.16s-.88-.06-1.33-.06-.66,0-1,0l-.94,0a3.48,3.48,0,0,1-.63,0,3.63,3.63,0,0,0-.64.06l-2.48.5a15.13,15.13,0,0,1-2.81.44H98q-.17.49-.3,1c-.09.33-.19.65-.3.94l-1.16,4c-.15.59-.31,1.15-.5,1.69s-.38,1.07-.61,1.63a2.32,2.32,0,0,1-.6,1l-.5.33a2.13,2.13,0,0,1-1.82.28,2,2,0,0,1-.8-.39,2,2,0,0,1-.58-.71,2.46,2.46,0,0,1-.3-.89,1.71,1.71,0,0,1,.08-.93c.15-.41.29-.8.44-1.19a11.82,11.82,0,0,0,.39-1.19l.41-1.38q.19-.66.36-1.32c.22-.74.44-1.46.66-2.18s.46-1.45.72-2.18a2.29,2.29,0,0,1-.17-.77,2.25,2.25,0,0,1,1.11-2c.18-.44.36-.89.52-1.35a14.61,14.61,0,0,1,.58-1.36l1.08-2.37c.35-.77.71-1.56,1.07-2.37.19-.41.35-.79.5-1.16s.31-.74.5-1.11a6,6,0,0,0,.47-.91,8.45,8.45,0,0,1,.47-1c0-.11.07-.22.11-.33s.07-.22.11-.33a2.69,2.69,0,0,0,.16-.39,2.9,2.9,0,0,1,.17-.39,3.05,3.05,0,0,0,.16-.52,3.23,3.23,0,0,1,.17-.53,4.42,4.42,0,0,1,.27-.8c.12-.23.23-.48.34-.74s.15-.37.24-.55a5.25,5.25,0,0,0,.25-.55l.22-.53a3.24,3.24,0,0,1,.28-.47,2.5,2.5,0,0,1,2.15-1.27,3.16,3.16,0,0,1,.66.11,2.33,2.33,0,0,1,1,.58,3.75,3.75,0,0,1,.68,1,5.11,5.11,0,0,1,.45,1l.33,1c.14.33.27.67.38,1s.24.71.39,1.08c.33.84.67,1.68,1,2.51s.69,1.66,1,2.51.64,1.61.91,2.4.56,1.59.86,2.4a11.82,11.82,0,0,0,.39,1.19l.44,1.18a6.14,6.14,0,0,0,.3.92c.13.31.27.61.41.91l-.11-.22q1.44,3,2.76,5.85c.26.58.52,1.16.78,1.71s.51,1.12.77,1.71c.18.4.35.83.5,1.27a12.84,12.84,0,0,0,.49,1.27A2.19,2.19,0,0,0,119.16,46.52ZM106.19,32h.8a4.93,4.93,0,0,1,.75.06c-.26-.74-.52-1.49-.77-2.26s-.54-1.53-.83-2.27-.6-1.49-.91-2.26-.62-1.53-.91-2.26a1,1,0,0,1-.11.33,9,9,0,0,1-.36.83l-.42.82c-.22.44-.43.89-.63,1.33s-.4.88-.58,1.32L99.9,32.73c.33-.08.65-.14,1-.2s.63-.12,1-.19c.63-.11,1.25-.19,1.88-.25l1.88-.14Z"/><path class="cls-1" d="M147.48,46.41a2,2,0,0,1,.38,1.74,2.46,2.46,0,0,1-1,1.52,2.14,2.14,0,0,1-1.74.36,2.38,2.38,0,0,1-1.52-1,.51.51,0,0,0-.08-.14.32.32,0,0,1-.08-.13,6.3,6.3,0,0,1-.5-.56c-.15-.18-.31-.36-.5-.55l.2.22a1.3,1.3,0,0,0,.19.22c-.33-.36-.65-.74-1-1.13l-1-1.18q-.33-.33-.66-.69c-.22-.24-.45-.47-.67-.69l-.88-.89a4.3,4.3,0,0,1-.66-.44c-.7-.4-1.39-.82-2.07-1.24s-1.39-.84-2.13-1.24l-1.16-.55c-.36-.19-.73-.39-1.1-.61l-.55-.33-.55-.33c.07,1.51.12,3,.14,4.44a34.21,34.21,0,0,1-.25,4.39,1.91,1.91,0,0,1-.33.83,3.23,3.23,0,0,1-.67.66,2.1,2.1,0,0,1-1.71.38,2.56,2.56,0,0,1-1.54-1,2.5,2.5,0,0,1-.33-1.77,3.7,3.7,0,0,1,0-.49,3.73,3.73,0,0,0,0-.5c0-.4.06-.78.06-1.13V43.49c0-.85,0-1.69-.06-2.51s-.07-1.67-.11-2.51c0-.41,0-.8,0-1.19s0-.78-.08-1.19V33.5q0-1.22,0-2.43c0-.81,0-1.62-.08-2.43,0-.4,0-.79,0-1.16a6.74,6.74,0,0,1,0-1.1c0-.44.06-.88.08-1.3s0-.83.09-1.24a1.54,1.54,0,0,0,0-.47,2.75,2.75,0,0,1,0-.41c0-.22,0-.45,0-.67s0-.44.09-.66v-1.1a2.22,2.22,0,0,1,.38-1,2.6,2.6,0,0,1,.78-.77,3,3,0,0,1,1.65-.38h.61a10.14,10.14,0,0,0,1.1-.06,10.9,10.9,0,0,1,1.16-.05,10.41,10.41,0,0,1,1.66.13l1.6.31c.29.07.58.15.85.24l.86.31a.94.94,0,0,0,.33.14.91.91,0,0,1,.33.13l.52.36a4.93,4.93,0,0,0,.53.36,10.23,10.23,0,0,1,1.1.94,9.21,9.21,0,0,1,.94,1.1,8.54,8.54,0,0,1,.88,1.47,6.9,6.9,0,0,1,.56,1.57l.19,1.13a8,8,0,0,1,.08,1.13v.83c0,.26,0,.53-.05.83s0,.44,0,.66,0,.44-.08.66a1.66,1.66,0,0,0-.11.56l-.25.93A4.81,4.81,0,0,1,141,33a9.66,9.66,0,0,1-.83,1.3,10.93,10.93,0,0,1-1.05,1.19l-.36.35a3.54,3.54,0,0,0-.35.42c-.19.18-.36.35-.53.49s-.34.3-.52.45a7,7,0,0,0,.74.47,6.34,6.34,0,0,1,.75.46,4.54,4.54,0,0,1,.44.28,2.32,2.32,0,0,0,.49.28,8.08,8.08,0,0,1,.72.44l.72.49a6.52,6.52,0,0,1,.88.72c.26.26.54.52.83.78a13.17,13.17,0,0,0,.94,1,9.46,9.46,0,0,1,.94,1.11l.66.77.72.83c-.08-.08-.13-.11-.17-.11a.27.27,0,0,1,.14.11.76.76,0,0,0,.14.16c.18.22.37.45.58.67S147.29,46.16,147.48,46.41ZM137.21,28.53v-.88a8.85,8.85,0,0,0-.05-.89,4.77,4.77,0,0,1-.2-.57,4.38,4.38,0,0,0-.19-.58,9,9,0,0,0-.77-1.05,3.62,3.62,0,0,1-.42-.36,1.7,1.7,0,0,0-.41-.31c-.19-.11-.35-.2-.5-.27s-.31-.15-.49-.22c-.41-.11-.8-.19-1.16-.25L131.86,23l-.69,0-.69,0h-.11a2.92,2.92,0,0,1,0,.66c0,.22,0,.45,0,.67s-.07.58-.09.85,0,.56-.08.86v1.32q.06,1.21.06,2.43c0,.81,0,1.62.05,2.43v1.49a5.64,5.64,0,0,0,.8.14c.24,0,.51,0,.8.08a8.7,8.7,0,0,0,1.71-.17,4.22,4.22,0,0,0,.83-.27l.14-.08a.55.55,0,0,1,.14-.09q.17-.16.33-.36l.33-.35L136,32a6.87,6.87,0,0,0,.58-.63.83.83,0,0,0,.14-.31,1,1,0,0,1,.14-.3A18.61,18.61,0,0,0,137.21,28.53Z"/><path class="cls-1" d="M163.76,17.82a6.38,6.38,0,0,1,2.26-.44h.11l1.66.11a7.77,7.77,0,0,1,1.6.28,12.44,12.44,0,0,1,1.46.41l1.46.53.83.33a4.32,4.32,0,0,1,.77.44.57.57,0,0,0,.25.14.45.45,0,0,1,.25.14.43.43,0,0,0,.22.13.54.54,0,0,1,.22.14l.17.11a.41.41,0,0,0,.16.11,5.62,5.62,0,0,1,.61.5,6.7,6.7,0,0,1,1.43,1.71c.26.37.5.75.72,1.13s.42.78.61,1.19a12.76,12.76,0,0,1,.39,1.24,12.72,12.72,0,0,0,.38,1.24,6.07,6.07,0,0,1,.31,1.22c.05.4.11.81.19,1.21a2.56,2.56,0,0,1,.05.55v.55c0,.3,0,.59,0,.89s0,.59-.09.88,0,.36,0,.52-.05.34-.09.53c0,.4-.09.82-.16,1.24s-.15.84-.22,1.24c-.19.89-.39,1.77-.61,2.65s-.48,1.75-.77,2.6l-.25.69a6.07,6.07,0,0,1-.31.69l-.33.66a7.44,7.44,0,0,1-.38.66c-.19.26-.36.52-.53.77a4,4,0,0,1-.58.72,7.76,7.76,0,0,1-.8.72c-.27.22-.56.46-.85.72l-.77.66a5.32,5.32,0,0,1-.89.6,19.39,19.39,0,0,1-1.76.89,4.47,4.47,0,0,0-.64.25l-.58.24a9.15,9.15,0,0,1-3.64.39,3.87,3.87,0,0,1-.8-.08l-.8-.2c-.92-.22-1.86-.49-2.82-.82-.18-.08-.37-.15-.58-.22s-.41-.15-.63-.22a.45.45,0,0,0-.25-.14.57.57,0,0,1-.25-.14l-.77-.44a3.44,3.44,0,0,1-.72-.55,6.39,6.39,0,0,1-1-1.14l-.88-1.24a1.23,1.23,0,0,1-.22-.27,1.72,1.72,0,0,0-.23-.28,3.7,3.7,0,0,1-.38-.61q-.16-.33-.33-.6l-.22-.5a3.93,3.93,0,0,1-.22-.5,3.16,3.16,0,0,1-.39-.88,5,5,0,0,1-.39-1.43c0-.19-.06-.39-.08-.61a2.6,2.6,0,0,0-.14-.66,8.42,8.42,0,0,1-.14-1.11,8.25,8.25,0,0,0-.13-1.1c0-.41-.07-.78-.09-1.13a6.56,6.56,0,0,1,0-1.08v-.88a3.87,3.87,0,0,1,.11-.89,4.53,4.53,0,0,1,.44-1.54,2,2,0,0,1,.06-.77,2.89,2.89,0,0,1,.22-.67c.07-.36.15-.73.25-1.1a7.44,7.44,0,0,1,.36-1.1,5.88,5.88,0,0,1,.41-.89c.17-.29.34-.59.52-.88s.39-.67.61-1,.44-.67.66-1l.64-.83a5.12,5.12,0,0,1,.69-.71c.59-.59,1.18-1.12,1.76-1.6l1-.89a4.58,4.58,0,0,1,1.13-.71,5.87,5.87,0,0,1,.85-.45Zm2.76,4.25a4,4,0,0,0-.78.06,5.94,5.94,0,0,0-1.32.5,4.36,4.36,0,0,0-1,.69l-.91.8c-.19.18-.36.35-.53.49l-.52.5-.55.66-.55.66-.67,1.16c-.29.52-.55,1-.77,1.44a2.33,2.33,0,0,0-.14.49,2.18,2.18,0,0,1-.13.5.2.2,0,0,1,0,.11.37.37,0,0,0,0,.17,1.66,1.66,0,0,1,0,.83,3.3,3.3,0,0,1-.39.88.15.15,0,0,1,0,.08.11.11,0,0,0,0,.08.43.43,0,0,0-.06.17.47.47,0,0,1,0,.16,2,2,0,0,0-.14.58c0,.21,0,.4-.08.58v.61a3,3,0,0,0,0,.61c0,.26,0,.5,0,.74s.05.49.08.75.07.56.09.8a3.29,3.29,0,0,0,.13.74c0,.22.07.44.09.64a4.94,4.94,0,0,0,.08.63,8.92,8.92,0,0,0,.83,1.82,4.16,4.16,0,0,0,.49.8c.19.24.37.49.56.75s.22.35.33.5l.38.49.28.28a10.2,10.2,0,0,0,1.93.83l.69.19.69.19.8.2a7.88,7.88,0,0,0,.8.13c.18,0,.39,0,.61,0a5.24,5.24,0,0,0,.61-.09,6.42,6.42,0,0,0,1.32-.49l.44-.22a3.93,3.93,0,0,1,.5-.22,12.16,12.16,0,0,0,1.54-1.16l.28-.25q.16-.13.33-.3l.41-.42a2.24,2.24,0,0,0,.36-.47,7.3,7.3,0,0,0,.64-1.24c.16-.42.34-.86.52-1.3l.25-.91c.09-.31.17-.61.25-.91l.5-2.32c.07-.36.13-.72.19-1.07s.1-.71.14-1.08a3.58,3.58,0,0,0,.11-.83,6.78,6.78,0,0,1,.05-.77,12.87,12.87,0,0,0-.16-2.1l-.5-1.49a8,8,0,0,0-.25-.82q-.14-.39-.3-.78c-.19-.29-.36-.58-.53-.85a4.39,4.39,0,0,0-.58-.8,1.37,1.37,0,0,0-.22-.2c-.07-.05-.14-.12-.22-.19a0,0,0,0,1,0,0,3,3,0,0,1-.44-.28,2.91,2.91,0,0,1-.42-.25,2.55,2.55,0,0,0-.47-.25c-.25-.11-.51-.21-.77-.3s-.52-.19-.77-.3a13.12,13.12,0,0,0-1.49-.34Z"/><path class="cls-1" d="M210,45.7a2.13,2.13,0,0,1,1,1.15,2.37,2.37,0,0,1,.09,1.55A2.29,2.29,0,0,1,210,49.81a2.2,2.2,0,0,1-1.76.19,2.6,2.6,0,0,1-1.33-.72,8.33,8.33,0,0,1-1-1.16,8.34,8.34,0,0,0-.61-.66,4.59,4.59,0,0,0-.36-.41,2.53,2.53,0,0,1-.36-.47c-.18-.19-.35-.38-.52-.58s-.34-.4-.52-.58a7.55,7.55,0,0,1-.58-.64c-.21-.23-.4-.46-.58-.68a16.32,16.32,0,0,0-1.41-1.47,16.2,16.2,0,0,1-1.41-1.46c-.48-.51-.94-1-1.38-1.52s-.88-1-1.32-1.52a17,17,0,0,0-1.38-1.43q-.72-.66-1.44-1.38a5.35,5.35,0,0,1-.63-.63c-.2-.24-.4-.49-.58-.75l-.11.11c-.08.15-.16.3-.25.44s-.18.3-.25.44a1.89,1.89,0,0,1-.44.5c0,.63,0,1.25,0,1.88s0,1.25,0,1.87v4.36c0,.63.06,1.24.06,1.85a14.46,14.46,0,0,0,.11,1.85,1.29,1.29,0,0,1-.14.91,3.28,3.28,0,0,1-.53.75,2.26,2.26,0,0,1-1.65.71,2.06,2.06,0,0,1-1.66-.71,2.11,2.11,0,0,1-.61-1,.78.78,0,0,1,0-.28,1,1,0,0,0-.06-.33,14.78,14.78,0,0,1-.11-1.74c0-.57,0-1.15,0-1.74s-.05-1.33,0-2,0-1.35,0-2v-4.2a41.84,41.84,0,0,0-.22-4.19c-.08-.37-.13-.72-.17-1.05s0-.68,0-1.05-.06-.79-.06-1.16,0-.74-.05-1.1V25.88a10.14,10.14,0,0,0-.06-1.1c0-.33,0-.66-.05-1s-.08-.66-.11-1a4.48,4.48,0,0,1-.14-.88c0-.3,0-.59-.08-.89a3.28,3.28,0,0,1-.12-.88v-.88a1.84,1.84,0,0,1,.64-1.63,2.42,2.42,0,0,1,1.68-.69,2.25,2.25,0,0,1,1.66.66,2.07,2.07,0,0,1,.52.8,4.89,4.89,0,0,1,.2.86c0,.37,0,.72,0,1s.05.66.09,1c.11.74.2,1.48.27,2.24s.13,1.5.17,2.23c0,.41,0,.8,0,1.19s0,.78,0,1.18a2.39,2.39,0,0,0,.06.61c.29-.37.6-.72.91-1.05s.62-.66.91-1a9.22,9.22,0,0,1,1.21-1.21l.67-.56a6.42,6.42,0,0,0,.6-.55c.22-.18.44-.38.64-.58s.41-.39.63-.58a4.09,4.09,0,0,1,.61-.49c.22-.15.44-.32.66-.5l1.3-1.19c.42-.38.85-.76,1.3-1.13l.69-.66.69-.66a4.83,4.83,0,0,1,.41-.39l.41-.33a4.29,4.29,0,0,1,.89-.61c.29-.15.64-.31,1-.49a1.76,1.76,0,0,1,.55-.06,2.12,2.12,0,0,1,1.21.33,2.07,2.07,0,0,1,.72.58,2.38,2.38,0,0,1,.39.8,2.67,2.67,0,0,1-.23,1.82,2.36,2.36,0,0,1-.38.5,1.36,1.36,0,0,1-.5.33s-.06.06-.08.06a.1.1,0,0,0-.08.05,3.66,3.66,0,0,0-.56.28l-.58.55c-.2.18-.39.37-.57.55a7.54,7.54,0,0,0-.67.61c-.22.22-.46.44-.71.66L202,25.05c-.46.41-.93.8-1.4,1.16s-.72.6-1,.91-.66.62-1,.91a3.35,3.35,0,0,1-.55.47,4.59,4.59,0,0,0-.55.47,13,13,0,0,0-1,1.05,3.56,3.56,0,0,1-.44.5q.16.16.33.36t.33.36A12.44,12.44,0,0,0,198,32.67c.22.22.45.43.69.64s.47.41.69.63.44.51.66.75l.66.68c.44.52.88,1,1.33,1.52l1.32,1.52.77.75c.26.24.52.48.78.74l.58.64c.2.24.39.46.57.69l.58.66.58.6c.22.23.43.45.61.67l.55.66a2.73,2.73,0,0,0,.28.33,2,2,0,0,1,.27.33,3.89,3.89,0,0,1,.34.36l.33.41.19.23Z"/><path class="cls-1" d="M245.83,46.52a2.36,2.36,0,0,1,.19,1.77,2.23,2.23,0,0,1-1.08,1.43,2.14,2.14,0,0,1-1.76.25,2.3,2.3,0,0,1-1.44-1.07,7.83,7.83,0,0,1-.55-1.13c-.15-.39-.31-.79-.49-1.19a5,5,0,0,0-.28-.8c-.11-.24-.22-.51-.33-.8-1-2.39-2.14-4.77-3.31-7.12-.08-.19-.14-.34-.2-.47l-.19-.47a.3.3,0,0,1-.22-.06H236c-.44-.07-.88-.12-1.33-.16s-.88-.06-1.32-.06-.66,0-1,0l-.94,0a3.59,3.59,0,0,1-.64,0,3.52,3.52,0,0,0-.63.06l-2.49.5a15,15,0,0,1-2.81.44h-.11q-.16.49-.3,1c-.1.33-.2.65-.31.94l-1.16,4c-.14.59-.31,1.15-.49,1.69s-.39,1.07-.61,1.63a2.25,2.25,0,0,1-.61,1l-.49.33a2.15,2.15,0,0,1-1.83.28,2.06,2.06,0,0,1-.8-.39,2,2,0,0,1-.58-.71,2.92,2.92,0,0,1-.3-.89,1.81,1.81,0,0,1,.08-.93c.15-.41.3-.8.45-1.19s.27-.78.38-1.19.29-.94.42-1.38.24-.88.35-1.32c.22-.74.45-1.46.67-2.18s.46-1.45.71-2.18a2.24,2.24,0,0,1,.94-2.76c.19-.44.36-.89.53-1.35a12.34,12.34,0,0,1,.58-1.36c.36-.81.72-1.6,1.07-2.37l1.08-2.37c.18-.41.35-.79.5-1.16s.31-.74.49-1.11a5.23,5.23,0,0,0,.47-.91,10.54,10.54,0,0,1,.47-1l.11-.33c0-.11.07-.22.11-.33s.13-.28.17-.39a2.69,2.69,0,0,1,.16-.39,3.14,3.14,0,0,0,.17-.52,3.14,3.14,0,0,1,.16-.53,5.34,5.34,0,0,1,.28-.8c.11-.23.22-.48.33-.74s.16-.37.25-.55l.25-.55c.07-.19.14-.36.22-.53a2.48,2.48,0,0,1,.27-.47A2.51,2.51,0,0,1,231,14.51a3.37,3.37,0,0,1,.66.11,2.35,2.35,0,0,1,1,.58,3.56,3.56,0,0,1,.69,1,5.71,5.71,0,0,1,.44,1q.17.52.33,1a8.94,8.94,0,0,1,.39,1q.17.52.39,1.08c.33.84.67,1.68,1,2.51s.69,1.66,1,2.51.63,1.61.91,2.4.56,1.59.85,2.4a11.82,11.82,0,0,0,.39,1.19c.15.38.29.78.44,1.18a6.23,6.23,0,0,0,.31.92c.12.31.26.61.41.91l-.11-.22q1.44,3,2.76,5.85c.26.58.51,1.16.77,1.71s.52,1.12.77,1.71a12,12,0,0,1,.5,1.27,12.89,12.89,0,0,0,.5,1.27A1.75,1.75,0,0,0,245.83,46.52ZM232.86,32h.8a4.71,4.71,0,0,1,.74.06l-.77-2.26c-.26-.78-.53-1.53-.83-2.27l-.91-2.26c-.31-.77-.61-1.53-.91-2.26a1,1,0,0,1-.11.33,9,9,0,0,1-.36.83c-.13.25-.26.53-.41.82s-.43.89-.64,1.33-.39.88-.58,1.32l-2.31,5.14c.33-.08.65-.14,1-.2s.64-.12,1-.19c.62-.11,1.25-.19,1.87-.25l1.88-.14Z"/><path class="cls-1" d="M33,46.12a2.63,2.63,0,0,1,.21,2,2.53,2.53,0,0,1-1.2,1.6,2.44,2.44,0,0,1-2,.28,2.55,2.55,0,0,1-1.61-1.2,7.79,7.79,0,0,1-.61-1.27c-.17-.43-.35-.87-.56-1.32a4.53,4.53,0,0,0-.31-.9c-.12-.26-.24-.56-.37-.89q-1.72-4-3.7-8l-.21-.53c-.07-.14-.14-.32-.22-.52a.38.38,0,0,1-.25-.06H22c-.5-.09-1-.15-1.48-.19s-1-.06-1.48-.06l-1.11,0-1,0a4.44,4.44,0,0,1-.71.06,4.44,4.44,0,0,0-.71.06l-2.77.56a15.76,15.76,0,0,1-3.15.49H9.39c-.13.37-.24.74-.34,1.11s-.22.72-.34,1l-1.3,4.44c-.16.66-.35,1.29-.55,1.88s-.43,1.2-.68,1.82a2.57,2.57,0,0,1-.68,1.17L5,48.15a2.41,2.41,0,0,1-2,.31A2.24,2.24,0,0,1,2,48a2.23,2.23,0,0,1-.65-.8,3,3,0,0,1-.34-1,2.06,2.06,0,0,1,.09-1.05c.17-.45.33-.89.5-1.32s.31-.88.43-1.33.32-1,.46-1.54.28-1,.4-1.48l.74-2.44c.25-.8.52-1.61.8-2.43a2.6,2.6,0,0,1-.18-.87A2.53,2.53,0,0,1,5.5,31.56c.21-.49.4-1,.59-1.51a13.21,13.21,0,0,1,.65-1.51l1.2-2.65,1.2-2.65c.21-.45.39-.89.56-1.3a13.26,13.26,0,0,1,.55-1.23,6.13,6.13,0,0,0,.52-1,10.71,10.71,0,0,1,.53-1.08l.12-.37c0-.12.08-.24.13-.37a3.36,3.36,0,0,0,.18-.43,2.48,2.48,0,0,1,.19-.43,3.91,3.91,0,0,0,.18-.59,3,3,0,0,1,.19-.58,5.27,5.27,0,0,1,.3-.9c.13-.26.25-.54.37-.83s.18-.41.28-.62.2-.41.28-.61.16-.4.25-.59a2.7,2.7,0,0,1,.3-.52,2.78,2.78,0,0,1,2.41-1.42,3.51,3.51,0,0,1,.74.12,2.58,2.58,0,0,1,1.14.65,4.23,4.23,0,0,1,.77,1.08,5.68,5.68,0,0,1,.49,1.14c.13.39.25.77.37,1.14a11.19,11.19,0,0,1,.44,1.14c.12.39.26.79.43,1.2.37.95.75,1.89,1.14,2.81s.77,1.86,1.14,2.81.71,1.8,1,2.68.62,1.78.95,2.68c.13.45.27.9.43,1.33s.33.87.5,1.32a6.42,6.42,0,0,0,.34,1c.14.35.29.69.46,1l-.12-.25q1.59,3.33,3.08,6.54c.29.66.57,1.29.86,1.91s.58,1.25.87,1.91c.2.46.39.93.55,1.42a12.7,12.7,0,0,0,.56,1.42A2.23,2.23,0,0,0,33,46.12ZM18.51,29.84h.9a6,6,0,0,1,.83.06c-.29-.82-.58-1.67-.86-2.53s-.6-1.71-.93-2.53l-1-2.53c-.35-.86-.68-1.7-1-2.53a.82.82,0,0,1-.13.37,7.88,7.88,0,0,1-.4.93c-.14.29-.3.6-.46.92-.25.5-.48,1-.71,1.48s-.44,1-.65,1.48L11.48,30.7l1.08-.22,1.08-.21c.7-.12,1.4-.22,2.1-.28s1.4-.11,2.1-.15Z"/><path class="cls-2" d="M16.53,15.18a.86.86,0,0,1-1.14.4h0A.85.85,0,0,1,15,14.44L20.45,3.15a.85.85,0,0,1,1.13-.4h0A.86.86,0,0,1,22,3.89Z"/><path class="cls-2" d="M16.27,15.18a.85.85,0,0,0,1.14.4h0a.85.85,0,0,0,.39-1.14L12.35,3.15a.86.86,0,0,0-1.14-.4h0a.85.85,0,0,0-.39,1.14Z"/><path class="cls-2" d="M15.56,14.37a.85.85,0,0,0,.83.87h0a.85.85,0,0,0,.87-.83l.27-12.54A.86.86,0,0,0,16.7,1h0a.85.85,0,0,0-.87.83Z"/><rect class="cls-2" x="13.95" y="10.32" width="4.9" height="7" rx="2.28"/></svg>