<svg id="Calque_1" data-name="Calque 1"
    xmlns="http://www.w3.org/2000/svg" viewBox="0 0 191.84 146.68" width="200px">
    <defs>
        <style>.cls-1{fill:#ff914d;}.cls-2{fill:#ffc954;}.cls-3{fill:#f69f37;}.cls-4{fill:#ffca71;}.cls-5{fill:#fff;}.cls-6{fill:#f7e9cc;}.cls-7{fill:#5e2619;}.cls-8{fill:#dbdbdb;}</style>
    </defs>
    <polygon class="cls-1" points="166.82 123.42 96.61 140.32 27.57 124.37 9.28 102.59 8.23 84.31 8.97 64.62 181.57 65.72 182.42 82.63 180.72 95.78 166.82 123.42"/>
    <path class="cls-2" d="M185.49,89.94c-4.37,24-43.16,44.69-90,44.69-45.59,0-84-20.84-90-44-.1.91.06,3.75.06,4.68,0,26.65,40.68,49.33,90.26,49.33s89.76-21.59,89.76-48.24A52.1,52.1,0,0,0,185.49,89.94Z"/>
    <path class="cls-3" d="M94.67,3C50.42,3,12.44,19.06,2.73,42.23c-1.88,4.46,1.1,19.82,1.1,19.82,10.8,20.34,46.59,34.88,90.84,34.88,48,0,87-16.24,93.69-39.24,0,0,.86-11.27.28-14.85C184.8,19.21,142.67,3,94.67,3Z"/>
    <path class="cls-4" d="M188.83,45.33c0,23.37-41.82,42.32-93.41,42.32S2,68.7,2,45.33,43.82,3,95.42,3,188.83,22,188.83,45.33Z"/>
    <path class="cls-5" d="M184.39,44.93c0,22.06-39.83,39.94-89,39.94S6.44,67,6.44,44.93,46.28,5,95.42,5,184.39,22.87,184.39,44.93Z"/>
    <path class="cls-6" d="M179.59,43.54c0,20.09-37.69,36.38-84.17,36.38S11.25,63.63,11.25,43.54,48.93,7.15,95.42,7.15,179.59,23.43,179.59,43.54Z"/>
    <path class="cls-7" d="M181.8,70.25v5.34a29.38,29.38,0,0,1,.48,5.22c0,27.29-39,49.42-87,49.42S8.35,108.64,8.35,81.34c0-1.58.31-4.11.31-6l.11-4a30.45,30.45,0,0,0-3.7,14c0,27.3,40.52,49.42,90.5,49.42s90.51-22.12,90.51-49.42A29.63,29.63,0,0,0,181.8,70.25Z"/>
    <path class="cls-8" d="M14.06,112a1,1,0,0,1-1-1V71.46a1,1,0,0,1,2,0V111A1,1,0,0,1,14.06,112Z"/>
    <path class="cls-8" d="M40.84,130.68a1,1,0,0,1-1-1V85a1,1,0,1,1,2,0v44.68A1,1,0,0,1,40.84,130.68Z"/>
    <path class="cls-8" d="M77.4,140.44a1,1,0,0,1-1-1v-46a1,1,0,0,1,2,0v46A1,1,0,0,1,77.4,140.44Z"/>
    <path class="cls-8" d="M115.33,139.89a1,1,0,0,1-1-1V93.17a1,1,0,1,1,2,0v45.74A1,1,0,0,1,115.33,139.89Z"/>
    <path class="cls-8" d="M150.27,131a1,1,0,0,1-1-1V85.58a1,1,0,0,1,2,0V130A1,1,0,0,1,150.27,131Z"/>
    <path class="cls-8" d="M176.81,113.89a1,1,0,0,1-1-1V71.19a1,1,0,1,1,2,0V112.9A1,1,0,0,1,176.81,113.89Z"/>
</svg>