<svg id="Calque_1" data-name="Calque 1"
    xmlns="http://www.w3.org/2000/svg" viewBox="0 0 324 325" width="324px">
    <defs>
        <style>.cls-1{fill:#606060;opacity:0.1;}.cls-2{fill:#52426a;}.cls-3{fill:#ad541c;}.cls-4{fill:#ffc954;}.cls-5{fill:#5e2619;}.cls-6{fill:#ff914d;}.cls-7{fill:#bc2a0d;}</style>
    </defs>
    <path d="M-.75-92.12a37.55,37.55,0,0,1,5.44-.36c2.33,0,3.46-.07,3.79-.53a.52.52,0,0,0,.06-.46c-.42-1.27-5-3.2-11.4-2.23,1.56-.92,2.8-2.09,2.64-2.85-.06-.27-.31-.6-1.14-.6h0A21.34,21.34,0,0,0-14.58-95.3l-24.19-15.08a30.62,30.62,0,0,0,2.47-3.09.24.24,0,0,0,0-.29c-.7-.83-1.44-1.69-2.2-2.56-1.62-1.81-3.4-3.7-5.29-5.61-3.2-3.22-6.54-6.32-9.86-9.22l16-3.44a.28.28,0,0,0,.15-.11.23.23,0,0,0,0-.18l-2.28-10.5,4,8.94a.23.23,0,0,0,.14.13.23.23,0,0,0,.2,0l8.12-4.48a.24.24,0,0,0,.11-.3c-.07-.21-7.48-20.95-11.32-36.95a221.43,221.43,0,0,0-10.9-33.23H-49a.25.25,0,0,0,.23-.25s0-5.12-.24-9.81c-.1-1.68-.18-2.89-.29-3.92a.24.24,0,0,0-.22-.22l-1.63-.09c-.13-.32-.26-.64-.4-.95a18.59,18.59,0,0,0,2.62-2,17.56,17.56,0,0,0,4.37-6,.25.25,0,0,0-.08-.28.27.27,0,0,0-.3,0,23.58,23.58,0,0,1-2.9,1.63c4.56-6.18,8.69-13.72,9.46-24.17,0,0,0,0,0-.06a56.09,56.09,0,0,0-1.43-16.5c0-.19-.08-.38-.13-.56-.29-1.25-.6-2.52-1-3.81a.26.26,0,0,0-.15-.17.24.24,0,0,0-.23,0c-1.29,1-2.51,1.94-3.68,2.92l-.07.06c-1.17,1-2.26,1.95-3.3,2.93l-.21.19c-1,.94-1.94,1.89-2.83,2.83-.16.16-.32.32-.47.49-.82.88-1.59,1.75-2.32,2.62l-.38.42a.06.06,0,0,1,0,0c-9.29,11.25-11.28,21.31-11.69,25.59l-.5-.18c-.37-.77-.81-1.44-1.24-1.53a.58.58,0,0,0-.59.23,1.8,1.8,0,0,0-.26.62,74.93,74.93,0,0,0-12.09-2.38,64,64,0,0,0,2.36-21.78s0,0,0,0,0-.12,0-.18c0-.64-.11-1.29-.18-1.94,0-.38-.09-.75-.14-1.12-.08-.62-.15-1.24-.26-1.86-.14-.89-.31-1.77-.49-2.64-.1-.45-.21-.91-.32-1.36-.17-.7-.35-1.39-.55-2.08-.1-.36-.2-.72-.31-1.08-.32-1.05-.68-2.09-1.07-3.11-.09-.25-.19-.49-.29-.74-.45-1.14-.93-2.26-1.46-3.36a.25.25,0,0,0-.2-.14.27.27,0,0,0-.22.11c-1,1.47-2,2.89-2.89,4.28,0,.08-.11.16-.16.25-12.4,19-14.07,29.78-13.42,35.41l-1.33,0c-2.57-.16-5.35-.21-8.26-.11,0-8.24-2-20.2-9.8-30.06-.18-.22-.36-.45-.55-.67-.74-.9-1.55-1.79-2.4-2.65-.25-.25-.48-.5-.73-.74a38.15,38.15,0,0,0-3.36-2.91.2.2,0,0,0-.21,0,.19.19,0,0,0-.16.14c-.52,1.2-1,2.37-1.41,3.53l-.3.83c-.4,1.12-.78,2.21-1.11,3.29-.09.29-.18.59-.26.88-.31,1-.6,2.06-.85,3.06-.07.3-.14.61-.22.91-.22.94-.41,1.86-.59,2.75,0,.2-.09.4-.12.59v0a56.13,56.13,0,0,0-.81,15,37.86,37.86,0,0,0,2.15,10l-.84.33-.18-.06a.24.24,0,0,0-.25.06.22.22,0,0,0,0,.21,42.69,42.69,0,0,0-8.9,5c-.26-1.25-.51-2.12-.55-2.23a.24.24,0,0,0-.23-.17h0a.24.24,0,0,0-.23.18l-.61,2.37c-.41-2.39-1.37-6.51-1.42-6.72a.24.24,0,0,0-.21-.19.3.3,0,0,0-.25.15l-1.06,2.56c.14-4.46-.17-12.1-6-21.7,0,0,0,0,0,0-.1-.17-.23-.35-.34-.52-.42-.67-.87-1.34-1.34-2-.22-.31-.43-.62-.66-.93-.5-.71-1.06-1.43-1.63-2.15-.21-.27-.41-.54-.63-.81-.64-.77-1.32-1.56-2-2.35-.19-.22-.36-.43-.56-.64-.9-1-1.85-2-2.87-3a.28.28,0,0,0-.23-.06.26.26,0,0,0-.18.16c-.51,1.48-1,2.92-1.36,4.3v0q-.6,2.1-1,4.05c-.11.47-.18.92-.28,1.37-.17.83-.35,1.66-.48,2.45s-.21,1.41-.31,2.11c-.06.47-.14.95-.18,1.4,0,.26-.08.52-.11.78a.45.45,0,0,0,0,.11c-1.16,12.53,2.63,19.16,4.09,21.18l-3.77-1.34a.23.23,0,0,0-.26.06.24.24,0,0,0,0,.27c1.27,2.82,4.72,6.39,5.93,7.6-.54,0-1.6-.1-3.62-.33a.2.2,0,0,0-.24.13.24.24,0,0,0,0,.28c2.91,3,7.9,5.08,11.66,6.35-.41.8-.72,1.49-.95,2-.86.19-1.68.38-2.45.58a.23.23,0,0,0-.18.2c-.88,5.44,1.22,12.69,1.24,12.76a.24.24,0,0,0,.23.18h0l.63,0,1.42,0c-.33,3.58-1.37,11.24-4.58,23.87-4.59,18-4.62,31-4.23,37.17a.25.25,0,0,0,.2.23l3,.52a.24.24,0,0,0,.2,0,.28.28,0,0,0,.09-.18c0-.07.15-6,1.34-9.49a49.59,49.59,0,0,0,1.7,13.77.23.23,0,0,0,.17.17l6.68,1.76h.06a.27.27,0,0,0,.17-.06.28.28,0,0,0,.07-.23s-.26-1.25-.53-3.5l10.41,6.52a135.24,135.24,0,0,1-14.2,4.31h0a68,68,0,0,1-15.23,2.09,38.33,38.33,0,0,1-4.92-.29.25.25,0,0,0-.22.08.24.24,0,0,0,0,.23c.11.37.28.79.42,1.18L-184.35-127a6.75,6.75,0,0,0-4.42-5.42c-2.27-2.46-6.53-3.27-9.73-3-2.64.24-4.65,1.19-5.54,2.64a.55.55,0,0,0,.07.53c.31.43,1.22.44,2.95.41a18,18,0,0,1,4.59.34l-.11.09h0c-6.14,2-8.53,5.22-8.12,7.7a.42.42,0,0,0,.24.32c.36.15.9-.2,2.21-1.08,1.55-1,3.79-2.52,5.8-2.81-3.13,2-5,4.74-5.25,6.56a2.19,2.19,0,0,0,.56,2c.57.39,1.43-.55,2.75-2,1.05-1.13,2.42-2.61,3.4-2.92-2.2,2.67-3.56,5.87-3.2,7.61a1.36,1.36,0,0,0,.72,1,.71.71,0,0,0,.31.08.67.67,0,0,0,.28-.06c.74-.3,1.32-1.85,1.93-3.49.45-1.21,1.06-2.82,1.55-3.11a5.93,5.93,0,0,0,4.71,3.11h0a3.69,3.69,0,0,0,3.2-1.91c5.09.14,14.17-.38,17.85-.61a71,71,0,0,0,12.47,15.49A72,72,0,0,0-136-92.58l-12.73,56.2a.21.21,0,0,0,0,.19.23.23,0,0,0,.17.1l1.15.17-1,5.4a.23.23,0,0,0,0,.18.25.25,0,0,0,.16.1l3.06.53h0a.3.3,0,0,0,.15-.05.22.22,0,0,0,.09-.16l.79-5.59,2.24.23-.59,5.44a.28.28,0,0,0,.06.18.22.22,0,0,0,.17.09l3.2.26h0a.22.22,0,0,0,.15-.06.26.26,0,0,0,.09-.16l.38-5.43c.88.08,1.8.15,2.78.22l-.46,5.3a.24.24,0,0,0,.2.26l3.33.54h0a.22.22,0,0,0,.15-.06.21.21,0,0,0,.09-.18l.1-5.64.39,0c.59,5.62,2.34,20,5.6,29.91l-5.6.38a.23.23,0,0,0-.18.09.25.25,0,0,0-.05.19l2.18,13.45a.24.24,0,0,0,.24.2h0l2.68-.19c.58,2.24,1.49,5.83,2.07,8.66.66,3.24-4,6.7-8.58,10-1.5,1.1-2.91,2.13-4.14,3.17a7,7,0,0,0-1.67,2.11,1.89,1.89,0,0,0,0,1.94c.59.86,2,1.3,4.32,1.3.42,0,.86,0,1.34,0,6-.38,19.11-2,26-5.58,2-1.26,2.25-2.3,2-3.91-.07-.36-.16-.76-.26-1.21s-.18-.77-.27-1.21c-.55-2.59-3.41-13.85-4.41-17.77l3.2-1a.25.25,0,0,0,.16-.31l-3.33-11.14a.27.27,0,0,0-.25-.18l-2.63.18-3.93-26.3-.09-2.39c1.63,0,3.29,0,5-.08,0,2-.1,4.76-.1,4.8a.25.25,0,0,0,.24.25l2.92.13h0a.26.26,0,0,0,.17-.07.23.23,0,0,0,.07-.19l-.18-5,3-.15.2,5.34A.25.25,0,0,0-106-29a.31.31,0,0,0,.16.06h0l2.66-.27a.24.24,0,0,0,.22-.26l-.47-5.22c1.56-.12,3.13-.25,4.72-.41l.18,5.27a.23.23,0,0,0,.09.18.27.27,0,0,0,.15.05h0l2.79-.54a.25.25,0,0,0,.2-.25l-.27-5c1.3-.15,2.6-.32,3.91-.51l.39,5.59a.25.25,0,0,0,.25.23h0l2.27-.14a.26.26,0,0,0,.16-.09.18.18,0,0,0,.06-.17l-.39-5.83q2.22-.36,4.44-.78l.92,5.74a.24.24,0,0,0,.24.2h0l2.52-.13a.25.25,0,0,0,.18-.1.22.22,0,0,0,0-.19l-1.12-6.08.21,0c1,3.26,3.22,9.73,5.6,13.08,1.57,2.21,4.62,4.13,10.51,4.13,5,0,12-1.39,21.89-5.15l.56,4.06a.24.24,0,0,0,.24.2h0l9-1.08a.24.24,0,0,0,.21-.26l-.14-1.8c2-.25,5.41-.66,6.67-.78h.17c1.65,0,4,2.22,7.19,6.77l.3.43c2.76,4,5,7.13,7.62,7.13a3.34,3.34,0,0,0,.62-.06l.08,0h0c3.09-.69,2.47-6.09,1.18-14.26s-2.57-16.35-6.92-16.35h-.31c-3.25.09-12.49,1.57-17.21,2.36l-.1-1a.21.21,0,0,0-.08-.16.2.2,0,0,0-.18-.05l-10.4,1.09a.24.24,0,0,0-.22.26l.34,3.3c-1.32.34-9.34,2.39-13.17,2.72s-4.9-.46-7.86-9.06c.48-.18.94-.38,1.41-.56l1.54,6.07a.22.22,0,0,0,.13.15.2.2,0,0,0,.11,0h.08l2.53-.94a.23.23,0,0,0,.14-.31L-62-43.68c.65-.28,1.28-.58,1.93-.87l2.18,6a.25.25,0,0,0,.23.16l.08,0,2.39-.79a.28.28,0,0,0,.14-.12.25.25,0,0,0,0-.19l-2.21-6.43.39-.2,2.35,5.84a.25.25,0,0,0,.23.15.12.12,0,0,0,.08,0l1.91-.68a.25.25,0,0,0,.14-.13.31.31,0,0,0,0-.19l-2.61-6h0a.24.24,0,0,0,.11-.27l-11.29-45.4a86,86,0,0,0,19.06-10.33c4.53,2.72,22.64,13.54,29.64,17.27l1.65.89c3.4,1.85,6.09,3.31,7.77,2.8A2.12,2.12,0,0,0-6.75-83c1.16,1.67,4.86,6.87,6.29,7h.07a.59.59,0,0,0,.4-.16,1.67,1.67,0,0,0,.34-1.25c0-1.8-1.34-4.75-4.12-7.47A23.37,23.37,0,0,1,2.3-82.43c1.89,1,2.91,1.48,3.48,1.28a.59.59,0,0,0,.33-.31c1-2.18-3.05-4.66-7.41-6.86a25.1,25.1,0,0,1,6.8,1.48c2,.63,3.18,1,3.44.24a1.89,1.89,0,0,0-.34-1.57C8-89.08,5.94-91.21-.75-92.12Z"/>
    <ellipse class="cls-1" cx="257" cy="218.71" rx="66.51" ry="16.29"/>
    <ellipse class="cls-1" cx="127.18" cy="292.71" rx="123.69" ry="30.29"/>
    <path class="cls-2" d="M256.24,92.89a.33.33,0,0,1-.32-.32V69.06a.32.32,0,0,1,.32-.31.31.31,0,0,1,.32.31V92.57A.32.32,0,0,1,256.24,92.89Z"/>
    <path class="cls-2" d="M253.79,97.48a.42.42,0,0,1-.15,0,.32.32,0,0,1-.12-.44L267,72.94a.3.3,0,0,1,.43-.12.31.31,0,0,1,.12.43L254.07,97.31A.32.32,0,0,1,253.79,97.48Z"/>
    <path class="cls-2" d="M254.9,99.11h-.07a.33.33,0,0,1-.24-.39l7-28.61a.33.33,0,0,1,.39-.23.31.31,0,0,1,.23.38l-7,28.61A.31.31,0,0,1,254.9,99.11Z"/>
    <path class="cls-2" d="M258.42,97.48a.32.32,0,0,1-.28-.17L244.63,73.25a.31.31,0,0,1,.12-.43.3.3,0,0,1,.43.12L258.69,97a.32.32,0,0,1-.12.44A.42.42,0,0,1,258.42,97.48Z"/>
    <path class="cls-2" d="M257.31,99.11a.32.32,0,0,1-.31-.25l-7-28.61a.31.31,0,0,1,.23-.38.32.32,0,0,1,.39.23l7,28.61a.33.33,0,0,1-.24.39Z"/>
    <path class="cls-3" d="M273.19,226.5a222.75,222.75,0,0,1-33.88.14,116,116,0,0,1,1.45-26.82c2.05-10.84,6.44-21.42,15.39-26.25v-.1l.1.05.09-.05v.1c9.08,4.91,13.46,15.73,15.48,26.74v0A116.25,116.25,0,0,1,273.19,226.5Z"/>
    <path class="cls-4" d="M290,215.33l-2.69,9.72c8.66-1.09,17.84-2.58,28-4.45L295,197.43Z"/>
    <path class="cls-4" d="M273.19,226.5c4.46-.35,9.37-.86,14.08-1.45l-15.45-24.7A116.15,116.15,0,0,1,273.19,226.5Z"/>
    <path class="cls-5" d="M306.56,194.67c-3.84,1.08-7.71,2-11.57,2.76l20.28,23.17C312.41,211.47,309.54,202.9,306.56,194.67Z"/>
    <path class="cls-5" d="M290,215.33l5-17.9a173.09,173.09,0,0,1-23.17,2.88v0l15.45,24.71Z"/>
    <path class="cls-6" d="M260.94,130.91c3.62-.11,7.43-.38,11.37-.85h0c1.82-.21,3.65-.47,5.52-.78C271.57,117,264.5,104,256.34,89.38c-8.36,14.5-15.48,27.49-21.78,39.83A136.53,136.53,0,0,0,260.94,130.91Z"/>
    <path class="cls-4" d="M260.93,130.91l-4.82,11.83c3.63-.05,7.79-.16,12-.54l-7.19-11.29Z"/>
    <path class="cls-5" d="M260.94,130.91l7.19,11.29.3,0,3.88-12.12C268.37,130.53,264.55,130.79,260.94,130.91Z"/>
    <path class="cls-4" d="M272.31,130.06l-3.88,12.12c4.61-.42,9.58-1.07,14.87-2a.75.75,0,0,1-.07-.12l-10.88-10Z"/>
    <path class="cls-5" d="M283.23,140.06c-1.73-3.52-3.51-7.16-5.36-10.79-1.87.31-3.7.57-5.52.78Z"/>
    <path class="cls-6" d="M283.3,140.1c-5.29.93-10.26,1.57-14.87,2l-.3,0c-4.23.38-8.16.56-11.79.62h-.09c-4.47.07-8.47-.07-12-.33a93.45,93.45,0,0,1-15.12-2.23A555.85,555.85,0,0,0,206,194.82a150.39,150.39,0,0,0,34.74,5.68c2.05-10.84,6.51-22.1,15.46-26.93v-.1l.1.05.09-.05v.1c9.08,4.91,13.46,15.73,15.48,26.74A173.09,173.09,0,0,0,295,197.43c3.86-.76,7.73-1.68,11.57-2.76A528.55,528.55,0,0,0,283.3,140.1Z"/>
    <path class="cls-4" d="M222.55,215.48l2.69,9.72c-8.65-1.09-17.84-2.58-28-4.45l20.28-23.17Z"/>
    <path class="cls-4" d="M239.32,226.65c-4.46-.34-9.37-.86-14.08-1.45l15.45-24.7A116.15,116.15,0,0,0,239.32,226.65Z"/>
    <path class="cls-5" d="M206,194.82c3.84,1.08,7.71,2,11.57,2.76l-20.28,23.17C200.1,211.62,203,203.05,206,194.82Z"/>
    <path class="cls-5" d="M222.55,215.48l-5-17.9a173,173,0,0,0,23.18,2.88s0,0,0,0L225.24,225.2Z"/>
    <path class="cls-4" d="M251.52,130.89l4.59,11.85c-3.64-.05-7.62,0-11.84-.33l7.23-11.52Z"/>
    <path class="cls-5" d="M251.5,130.89l-7.23,11.52-.3,0L240.16,130C244.1,130.48,247.9,130.77,251.5,130.89Z"/>
    <path class="cls-4" d="M240.16,130,244,142.38a97.83,97.83,0,0,1-14.82-2.2.75.75,0,0,0,.07-.12L240.12,130Z"/>
    <path class="cls-5" d="M229.22,140.06c1.73-3.52,3.49-7.22,5.34-10.85,1.87.31,3.75.58,5.56.79Z"/>
    <polygon class="cls-5" points="251.5 130.89 256.11 142.74 260.94 130.91 251.5 130.89"/>
    <path class="cls-7" d="M211.24,223h-.07a.32.32,0,0,1-.24-.38C223.79,164.31,255.72,90,256,89.26a.32.32,0,0,1,.36-.19.31.31,0,0,1,.25.31l-.18,84.19a.32.32,0,0,1-.32.32.32.32,0,0,1-.32-.32L256,91C251.5,101.6,223.4,169,211.55,222.79A.32.32,0,0,1,211.24,223Z"/>
    <path class="cls-2" d="M303.17,223a.32.32,0,0,1-.31-.24c-14.44-53.89-46.47-132.27-46.79-133a.32.32,0,1,1,.58-.25c.33.76,32.37,79.19,46.82,133.12a.31.31,0,0,1-.22.39Z"/>
    <path class="cls-2" d="M127.55,49.32a.62.62,0,0,1-.62-.62V3.07a.62.62,0,1,1,1.23,0V48.7A.61.61,0,0,1,127.55,49.32Z"/>
    <path class="cls-2" d="M122.79,58.23a.64.64,0,0,1-.3-.08.62.62,0,0,1-.24-.84l26.23-46.72a.61.61,0,0,1,.84-.24.62.62,0,0,1,.24.84L123.33,57.91A.62.62,0,0,1,122.79,58.23Z"/>
    <path class="cls-2" d="M125,61.39l-.15,0a.61.61,0,0,1-.45-.75L138,5.08a.62.62,0,1,1,1.2.3L125.54,60.92A.62.62,0,0,1,125,61.39Z"/>
    <path class="cls-2" d="M131.77,58.23a.62.62,0,0,1-.54-.32L105,11.19a.62.62,0,0,1,1.08-.6l26.23,46.72a.62.62,0,0,1-.24.84A.64.64,0,0,1,131.77,58.23Z"/>
    <path class="cls-2" d="M129.61,61.39a.62.62,0,0,1-.59-.47L115.37,5.38a.62.62,0,0,1,.45-.75.63.63,0,0,1,.75.45l13.64,55.54a.61.61,0,0,1-.45.75Z"/>
    <path class="cls-3" d="M160.45,308.69a433.71,433.71,0,0,1-65.78.29c-.66-11.78-1-32.16,2.82-52.07v0c4-21,12.5-41.55,29.87-50.94v-.2a.85.85,0,0,0,.19.1l.17-.1v.2c17.64,9.53,26.13,30.54,30.05,51.92,0,0,0,0,0,.05C161.33,277.36,161.09,297.07,160.45,308.69Z"/>
    <path class="cls-4" d="M193,287l-5.23,18.88c16.8-2.12,34.64-5,54.36-8.64l-39.37-45Z"/>
    <path class="cls-4" d="M160.45,308.69c8.66-.66,18.19-1.66,27.33-2.8l-30-48C161.33,277.36,161.09,297.08,160.45,308.69Z"/>
    <path class="cls-5" d="M225.23,246.9c-7.45,2.11-15,3.89-22.46,5.36l39.37,45C236.59,279.51,231,262.88,225.23,246.9Z"/>
    <path class="cls-5" d="M193,287l9.76-34.75a333.64,333.64,0,0,1-45,5.6s0,0,0,.05l30,48Z"/>
    <path class="cls-6" d="M136.67,123.13h0c7-.22,14.38-.74,22-1.65h.08q5.28-.63,10.7-1.52c-12.22-23.88-26-49.16-41.79-77.44-16.22,28.14-30,53.36-42.27,77.32A264.81,264.81,0,0,0,136.67,123.13Z"/>
    <path class="cls-4" d="M136.64,123.13l-9.36,23c7.05-.1,15.14-.31,23.35-1l-14-21.92Z"/>
    <path class="cls-5" d="M136.67,123.13l14,21.92.57-.05,7.54-23.52C151.08,122.39,143.66,122.91,136.67,123.13Z"/>
    <path class="cls-4" d="M158.74,121.48,151.2,145c9-.82,18.6-2.06,28.86-3.87l-.12-.25-21.12-19.41Z"/>
    <path class="cls-5" d="M179.94,140.88c-3.36-6.83-6.81-13.89-10.42-20.93q-5.42.9-10.7,1.52Z"/>
    <path class="cls-6" d="M180.06,141c-10.26,1.81-19.9,3.05-28.86,3.87l-.57,0c-8.21.73-15.84,1.1-22.89,1.21h-.19c-8.67.12-16.44-.15-23.25-.64A182.66,182.66,0,0,1,75,141.13a1081.68,1081.68,0,0,0-45,106.07c12.3,3.74,35.86,9.32,67.44,11,4-21,12.65-42.89,30-52.28v-.2a.85.85,0,0,0,.19.1l.17-.1v.2c17.64,9.53,26.13,30.54,30.05,51.92a333.64,333.64,0,0,0,45-5.6c7.49-1.47,15-3.25,22.46-5.36A1023.83,1023.83,0,0,0,180.06,141Z"/>
    <path class="cls-4" d="M62.14,287.31l5.22,18.87c-16.8-2.12-34.63-5-54.36-8.64,0,0,39.38-45,39.38-45Z"/>
    <path class="cls-4" d="M94.69,309c-8.66-.66-18.19-1.66-27.33-2.8l30-48C93.81,277.66,94.05,297.37,94.69,309Z"/>
    <path class="cls-5" d="M29.91,247.2c7.46,2.1,15,3.89,22.47,5.35L13,297.53C18.56,279.8,24.14,263.17,29.91,247.2Z"/>
    <path class="cls-5" d="M62.14,287.31l-9.76-34.76a333.3,333.3,0,0,0,45,5.6.11.11,0,0,1,0,.06s-30,48-30,48Z"/>
    <path class="cls-4" d="M118.37,123.09l8.91,23c-7-.1-14.77.09-23-.64l14-22.37Z"/>
    <path class="cls-5" d="M118.34,123.09l-14,22.37-.57-.06-7.4-24C104,122.3,111.35,122.86,118.34,123.09Z"/>
    <path class="cls-4" d="M96.33,121.38l7.4,24A190.83,190.83,0,0,1,75,141.13l.12-.25,21.16-19.51Z"/>
    <path class="cls-5" d="M75.08,140.88c3.36-6.83,6.78-14,10.38-21,3.62.6,7.27,1.12,10.78,1.54Z"/>
    <polygon class="cls-5" points="118.34 123.09 127.28 146.1 136.67 123.13 118.34 123.09"/>
    <path class="cls-2" d="M39.46,301.34h-.14a.59.59,0,0,1-.47-.69C64,194.18,126.42,58.58,127.05,57.22a.65.65,0,0,1,.7-.34.59.59,0,0,1,.49.57l-.36,148.79a.6.6,0,0,1-.62.58.6.6,0,0,1-.62-.58L127,60.31c-8.81,19.43-63.75,142.42-86.93,240.58A.6.6,0,0,1,39.46,301.34Z"/>
    <path class="cls-2" d="M218.68,301.34a.6.6,0,0,1-.59-.43c-28-98.34-90.2-241.41-90.83-242.79a.58.58,0,0,1,.33-.76.63.63,0,0,1,.81.31c.63,1.38,62.82,144.52,90.88,242.94a.58.58,0,0,1-.44.71A.44.44,0,0,1,218.68,301.34Z"/>
</svg>