<svg id="Calque_1" data-name="Calque 1"
    xmlns="http://www.w3.org/2000/svg" viewBox="0 0 372 403" width="403px">
    <defs>
        <style>.cls-1{fill:#606060;opacity:0.1;}.cls-2{fill:#52426a;}.cls-3{fill:#ad541c;}.cls-4{fill:#ffc954;}.cls-5{fill:#489e4a;}.cls-6{fill:#5e2619;}.cls-7{fill:#ff914d;}</style>
    </defs>
    <ellipse class="cls-1" cx="99.36" cy="237" rx="96.36" ry="25"/>
    <path class="cls-2" d="M100.38,50.26a.47.47,0,0,1-.47-.48v-35a.48.48,0,0,1,1,0v35A.47.47,0,0,1,100.38,50.26Z"/>
    <path class="cls-2" d="M96.74,57.1A.53.53,0,0,1,96.5,57a.48.48,0,0,1-.18-.65l20.13-35.86a.48.48,0,0,1,.83.47L97.15,56.85A.48.48,0,0,1,96.74,57.1Z"/>
    <path class="cls-2" d="M98.39,59.52h-.11a.47.47,0,0,1-.35-.57L108.4,16.31A.48.48,0,0,1,109,16a.46.46,0,0,1,.34.57L98.85,59.16A.47.47,0,0,1,98.39,59.52Z"/>
    <path class="cls-2" d="M103.63,57.1a.48.48,0,0,1-.42-.25L83.08,21a.49.49,0,0,1,.18-.65.48.48,0,0,1,.65.18L104,56.39a.48.48,0,0,1-.18.65A.53.53,0,0,1,103.63,57.1Z"/>
    <path class="cls-2" d="M102,59.52a.48.48,0,0,1-.46-.36L91,16.53a.47.47,0,1,1,.92-.22l10.47,42.63a.46.46,0,0,1-.34.57Z"/>
    <path class="cls-3" d="M125.64,249.33a333.68,333.68,0,0,1-50.49.22c-.51-9-.73-24.68,2.17-40,3.06-16.16,9.6-31.91,22.93-39.11v-.15l.14.07.13-.07v.15c13.55,7.31,20.06,23.44,23.07,39.84,0,0,0,0,0,.05C126.32,225.28,126.13,240.41,125.64,249.33Z"/>
    <path class="cls-4" d="M150.63,232.69l-4,14.49c12.89-1.63,26.58-3.84,41.72-6.63,0,0-30.22-34.53-30.22-34.53Z"/>
    <path class="cls-4" d="M125.64,249.33c6.65-.51,14-1.28,21-2.15l-23-36.81C126.32,225.29,126.13,240.41,125.64,249.33Z"/>
    <path class="cls-5" d="M175.36,201.91c-5.72,1.61-11.49,3-17.24,4.11l30.22,34.52C184.07,226.93,179.79,214.17,175.36,201.91Z"/>
    <path class="cls-6" d="M150.63,232.69,158.12,206a255.19,255.19,0,0,1-34.53,4.29s0,0,0,.05l23,36.82Z"/>
    <path class="cls-7" d="M107.39,106.91c5.39-.17,11.06-.57,16.94-1.27h.06c2.7-.33,5.44-.71,8.21-1.17C123.22,86.14,112.69,66.74,100.52,45c-12.45,21.6-23.06,41-32.43,59.35A203.6,203.6,0,0,0,107.39,106.91Z"/>
    <path class="cls-4" d="M107.37,106.91l-7.19,17.63c5.41-.08,11.62-.24,17.92-.8l-10.71-16.83Z"/>
    <path class="cls-6" d="M107.39,106.91l10.71,16.83.44,0,5.79-18.06C118.45,106.34,112.76,106.74,107.39,106.91Z"/>
    <path class="cls-4" d="M124.33,105.64l-5.79,18.06c6.88-.63,14.27-1.59,22.15-3l-.09-.19-16.21-14.9Z"/>
    <path class="cls-6" d="M140.6,120.54c-2.58-5.25-5.23-10.67-8-16.07-2.77.46-5.51.84-8.21,1.17Z"/>
    <path class="cls-7" d="M140.69,120.6c-7.88,1.39-15.27,2.34-22.15,3l-.44,0c-6.3.56-12.15.84-17.56.93h-.15c-6.65.09-12.62-.11-17.84-.49A142.23,142.23,0,0,1,60,120.73a830.21,830.21,0,0,0-34.57,81.4c9.44,2.88,27.52,7.16,51.76,8.46,3.06-16.14,9.71-32.92,23-40.12v-.15l.14.07.13-.07v.15c13.55,7.31,20.06,23.44,23.07,39.84A256.59,256.59,0,0,0,158.12,206c5.75-1.13,11.52-2.5,17.24-4.11A784.42,784.42,0,0,0,140.69,120.6Z"/>
    <path class="cls-4" d="M50.18,232.92l4,14.48c-12.89-1.62-26.58-3.84-41.72-6.63l30.22-34.53Z"/>
    <path class="cls-4" d="M75.17,249.55c-6.65-.51-14-1.27-21-2.15l23-36.81C74.49,225.51,74.68,240.64,75.17,249.55Z"/>
    <path class="cls-6" d="M25.45,202.13c5.72,1.61,11.49,3,17.24,4.11L12.47,240.77C16.73,227.16,21,214.39,25.45,202.13Z"/>
    <path class="cls-6" d="M50.18,232.92l-7.49-26.68a255,255,0,0,0,34.53,4.3s0,0,0,0l-23,36.82Z"/>
    <path class="cls-4" d="M93.35,106.88l6.83,17.66c-5.41-.08-11.34.07-17.64-.49l10.78-17.17Z"/>
    <path class="cls-6" d="M93.32,106.88,82.54,124.05l-.44,0-5.68-18.44C82.3,106.27,88,106.71,93.32,106.88Z"/>
    <path class="cls-4" d="M76.42,105.57,82.1,124A148.07,148.07,0,0,1,60,120.73l.1-.19,16.24-15Z"/>
    <path class="cls-6" d="M60.12,120.54c2.57-5.25,5.2-10.76,8-16.16,2.77.46,5.57.86,8.27,1.18Z"/>
    <polygon class="cls-6" points="93.32 106.88 100.18 124.54 107.39 106.91 93.32 106.88"/>
    <path class="cls-2" d="M33.33,244.18h-.1a.47.47,0,0,1-.36-.57C52,156.68,99.61,46,100.09,44.85a.47.47,0,0,1,.53-.28A.48.48,0,0,1,101,45l-.28,125.43a.47.47,0,0,1-.47.47.48.48,0,0,1-.48-.47l.28-123.1C93.32,63.23,51.46,163.66,33.79,243.8A.46.46,0,0,1,33.33,244.18Z"/>
    <path class="cls-2" d="M170.3,244.18a.48.48,0,0,1-.46-.35c-21.52-80.29-69.23-197.09-69.71-198.22a.47.47,0,0,1,.25-.62.47.47,0,0,1,.62.25c.48,1.13,48.22,118,69.76,198.34a.47.47,0,0,1-.34.58Z"/>
    <ellipse class="cls-1" cx="224.29" cy="362.57" rx="152.87" ry="37.43"/>
    <path class="cls-2" d="M227.11,62.17a.77.77,0,0,1-.77-.77V4.77a.77.77,0,1,1,1.54,0V61.4A.77.77,0,0,1,227.11,62.17Z"/>
    <path class="cls-2" d="M221.21,73.23a.75.75,0,0,1-.38-.1.77.77,0,0,1-.29-1l32.56-58a.76.76,0,0,1,1.33.75l-32.55,58A.76.76,0,0,1,221.21,73.23Z"/>
    <path class="cls-2" d="M223.88,77.15a.55.55,0,0,1-.18,0,.76.76,0,0,1-.56-.92L240.08,7.26a.77.77,0,1,1,1.49.37L224.63,76.57A.77.77,0,0,1,223.88,77.15Z"/>
    <path class="cls-2" d="M232.35,73.23a.78.78,0,0,1-.67-.39l-32.55-58a.76.76,0,0,1,.29-1,.77.77,0,0,1,1.05.29l32.55,58a.76.76,0,0,1-.29,1A.75.75,0,0,1,232.35,73.23Z"/>
    <path class="cls-2" d="M229.68,77.15a.75.75,0,0,1-.74-.58L212,7.63a.78.78,0,0,1,.57-.93.76.76,0,0,1,.92.56l16.94,68.95a.76.76,0,0,1-.56.92A.55.55,0,0,1,229.68,77.15Z"/>
    <path class="cls-3" d="M268,384.12a536.34,536.34,0,0,1-81.66.35c-.82-14.61-1.18-39.9,3.5-64.63l0,0c4.93-26.1,15.51-51.58,37.07-63.22v-.25l.23.12.22-.12v.25c21.9,11.82,32.44,37.9,37.3,64.43a.13.13,0,0,0,0,.07C269.05,345.23,268.75,369.7,268,384.12Z"/>
    <path class="cls-4" d="M308.36,357.21l-6.48,23.43c20.85-2.63,43-6.21,67.47-10.73l-48.87-55.83Z"/>
    <path class="cls-4" d="M268,384.12c10.75-.83,22.58-2.06,33.92-3.48L264.66,321.1C269.05,345.23,268.75,369.7,268,384.12Z"/>
    <path class="cls-6" d="M348.36,307.43c-9.25,2.6-18.58,4.82-27.88,6.65l48.87,55.83C362.46,347.9,355.53,327.25,348.36,307.43Z"/>
    <path class="cls-6" d="M308.36,357.21l12.12-43.13A414.39,414.39,0,0,1,264.64,321a.13.13,0,0,0,0,.07l37.23,59.55Z"/>
    <path class="cls-7" d="M238.44,153.79h0c8.68-.27,17.85-.91,27.35-2h.11c4.36-.52,8.79-1.14,13.28-1.89-15.17-29.63-32.22-61-51.88-96.12C207.2,88.65,190,120,174.88,149.7A328.43,328.43,0,0,0,238.44,153.79Z"/>
    <path class="cls-4" d="M238.4,153.79l-11.62,28.52c8.75-.14,18.79-.4,29-1.31l-17.32-27.21Z"/>
    <path class="cls-6" d="M238.44,153.79,255.76,181l.71-.06,9.36-29.2C256.33,152.88,247.12,153.51,238.44,153.79Z"/>
    <path class="cls-4" d="M265.83,151.74l-9.36,29.2c11.13-1,23.08-2.56,35.83-4.8l-.16-.31-26.2-24.1Z"/>
    <path class="cls-6" d="M292.14,175.83c-4.16-8.48-8.45-17.25-12.92-26-4.49.75-8.92,1.37-13.28,1.89Z"/>
    <path class="cls-7" d="M292.3,175.94c-12.75,2.24-24.7,3.78-35.83,4.79l-.71.07c-10.19.91-19.66,1.36-28.4,1.5h-.24c-10.76.16-20.41-.18-28.86-.79a227.73,227.73,0,0,1-36.42-5.37,1342.38,1342.38,0,0,0-55.92,131.65c15.27,4.65,44.52,11.57,83.71,13.68,5-26.1,15.7-53.24,37.26-64.88v-.25l.23.12.22-.12v.25c21.9,11.82,32.44,37.9,37.3,64.43a412.83,412.83,0,0,0,55.84-6.95c9.31-1.82,18.63-4,27.88-6.64A1272,1272,0,0,0,292.3,175.94Z"/>
    <path class="cls-4" d="M145.92,357.58,152.41,381c-20.86-2.63-43-6.21-67.48-10.72l48.88-55.84Z"/>
    <path class="cls-4" d="M186.33,384.48c-10.75-.82-22.58-2.06-33.92-3.48l37.22-59.53C185.24,345.6,185.54,370.07,186.33,384.48Z"/>
    <path class="cls-6" d="M105.92,307.79c9.25,2.61,18.58,4.83,27.89,6.65L84.93,370.27C91.83,348.26,98.76,327.62,105.92,307.79Z"/>
    <path class="cls-6" d="M145.92,357.58l-12.11-43.14a412.78,412.78,0,0,0,55.84,6.94s0,.06,0,.08S152.41,381,152.41,381Z"/>
    <path class="cls-4" d="M215.73,153.74l11.05,28.57c-8.75-.14-18.34.11-28.53-.8l17.44-27.77Z"/>
    <path class="cls-6" d="M215.69,153.74l-17.44,27.77-.7-.07-9.19-29.82C197.86,152.76,207,153.46,215.69,153.74Z"/>
    <path class="cls-4" d="M188.36,151.62l9.19,29.82c-11.13-1-22.67-2.16-35.71-5.3l.15-.31,26.26-24.22Z"/>
    <path class="cls-6" d="M162,175.83c4.17-8.48,8.42-17.39,12.89-26.13,4.48.74,9,1.39,13.37,1.91Z"/>
    <polygon class="cls-6" points="215.69 153.74 226.78 182.31 238.44 153.79 215.69 153.74"/>
    <path class="cls-2" d="M117.77,375l-.16,0a.72.72,0,0,1-.59-.85C148.22,242,225.72,73.67,226.5,72a.79.79,0,0,1,.86-.42.74.74,0,0,1,.62.71L227.53,257a.78.78,0,0,1-1.55,0l.45-181.14c-11,24.12-79.14,176.79-107.9,298.62A.77.77,0,0,1,117.77,375Z"/>
    <path class="cls-2" d="M340.23,375a.77.77,0,0,1-.74-.53C304.7,252.39,227.54,74.81,226.76,73.1a.7.7,0,0,1,.4-.94.78.78,0,0,1,1,.38c.78,1.71,78,179.38,112.8,301.55a.72.72,0,0,1-.54.89Z"/>
</svg>